<?xml version="1.0" encoding="utf-8"?>
<!-- Generator: Adobe Illustrator 25.3.1, SVG Export Plug-In . SVG Version: 6.00 Build 0)  -->
<svg version="1.1" id="圖層_1" xmlns="http://www.w3.org/2000/svg" xmlns:xlink="http://www.w3.org/1999/xlink" x="0px" y="0px"
	 viewBox="0 0 100 300" style="enable-background:new 0 0 100 300;" xml:space="preserve">
<style type="text/css">
	.st0{fill:#E65B92;}
	.st1{fill:none;}
</style>
<g>
	<path class="st0" d="M1,6.6c0-0.8,0.6-1.4,1.4-1.4s1.4,0.6,1.4,1.4H1z"/>
	<g>
		<rect x="0.5" class="st1" width="4.2" height="7.1"/>
	</g>
	<rect x="0.5" y="5.7" class="st1" width="4.2" height="1.4"/>
	<path class="st0" d="M3.9,6.6C3.9,7.4,3.2,8,2.5,8S1,7.4,1,6.6l0,0H3.9z"/>
	<g>
		<rect x="0.5" y="5.7" class="st1" width="4.2" height="7.1"/>
	</g>
	<path class="st0" d="M1,18.1c0-0.8,0.6-1.4,1.4-1.4s1.4,0.6,1.4,1.4l0,0H1z"/>
	<g>
		<rect x="0.5" y="11.3" class="st1" width="4.2" height="7.1"/>
	</g>
	<rect x="0.5" y="17" class="st1" width="4.2" height="1.4"/>
	<path class="st0" d="M3.9,18.1L3.9,18.1c0,0.8-0.6,1.4-1.4,1.4S1,18.9,1,18.1l0,0H3.9z"/>
	<g>
		<rect x="0.5" y="17" class="st1" width="4.2" height="7.1"/>
	</g>
	<path class="st0" d="M1,29.5L1,29.5c0-0.8,0.6-1.4,1.4-1.4s1.4,0.6,1.4,1.4l0,0H1z"/>
	<g>
		<rect x="0.5" y="22.6" class="st1" width="4.2" height="7.1"/>
	</g>
	<rect x="0.5" y="28.3" class="st1" width="4.2" height="1.4"/>
	<path class="st0" d="M3.9,29.5L3.9,29.5c0,0.8-0.6,1.4-1.4,1.4S1,30.3,1,29.6l0,0h2.9V29.5z"/>
	<g>
		<rect x="0.5" y="28.3" class="st1" width="4.2" height="7.1"/>
	</g>
	<path class="st0" d="M1,41c0-0.8,0.6-1.4,1.4-1.4s1.4,0.6,1.4,1.4l0,0H1z"/>
	<g>
		<rect x="0.5" y="34" class="st1" width="4.2" height="7.1"/>
	</g>
	<rect x="0.5" y="39.6" class="st1" width="4.2" height="1.4"/>
	<path class="st0" d="M3.9,41L3.9,41c0,0.8-0.6,1.4-1.4,1.4S1,41.8,1,41l0,0H3.9z"/>
	<g>
		<rect x="0.5" y="39.6" class="st1" width="4.2" height="7.1"/>
	</g>
	<path class="st0" d="M1,52.5L1,52.5C1,51.7,1.7,51,2.5,51s1.4,0.6,1.4,1.4l0,0L1,52.5L1,52.5z"/>
	<g>
		<rect x="0.5" y="46.7" class="st1" width="4.2" height="7.1"/>
	</g>
	<rect x="0.5" y="52.4" class="st1" width="4.2" height="1.4"/>
	<path class="st0" d="M3.9,52.5L3.9,52.5c0,0.8-0.6,1.4-1.4,1.4S1,53.3,1,52.5l0,0H3.9z"/>
	<g>
		<rect x="0.5" y="52.4" class="st1" width="4.2" height="7.1"/>
	</g>
	<path class="st0" d="M1,63.9c0-0.8,0.6-1.4,1.4-1.4s1.4,0.6,1.4,1.4l0,0H1z"/>
	<g>
		<rect x="0.5" y="58" class="st1" width="4.2" height="7.1"/>
	</g>
	<rect x="0.5" y="63.7" class="st1" width="4.2" height="1.4"/>
	<path class="st0" d="M3.9,63.9L3.9,63.9c0,0.8-0.6,1.4-1.4,1.4S1,64.7,1,64l0,0L3.9,63.9L3.9,63.9z"/>
	<g>
		<rect x="0.5" y="63.7" class="st1" width="4.2" height="7.1"/>
	</g>
	<path class="st0" d="M1,75.4C1,74.6,1.7,74,2.5,74s1.4,0.6,1.4,1.4l0,0H1z"/>
	<g>
		<rect x="0.5" y="69.3" class="st1" width="4.2" height="7.1"/>
	</g>
	<rect x="0.5" y="75" class="st1" width="4.2" height="1.4"/>
	<path class="st0" d="M3.9,75.4L3.9,75.4c0,0.8-0.6,1.4-1.4,1.4S1,76.2,1,75.4l0,0H3.9z"/>
	<g>
		<rect x="0.5" y="75" class="st1" width="4.2" height="7.1"/>
	</g>
	<path class="st0" d="M1,86.9c0-0.8,0.6-1.4,1.4-1.4s1.4,0.6,1.4,1.4l0,0H1z"/>
	<g>
		<rect x="0.5" y="80.7" class="st1" width="4.2" height="7.1"/>
	</g>
	<rect x="0.5" y="86.3" class="st1" width="4.2" height="1.4"/>
	<path class="st0" d="M3.9,86.9L3.9,86.9c0,0.8-0.6,1.4-1.4,1.4S1,87.7,1,86.9l0,0H3.9z"/>
	<g>
		<rect x="0.5" y="86.3" class="st1" width="4.2" height="7.1"/>
	</g>
	<path class="st0" d="M1,98.3c0-0.8,0.6-1.4,1.4-1.4s1.4,0.6,1.4,1.4l0,0H1z"/>
	<g>
		<rect x="0.5" y="92" class="st1" width="4.2" height="7.1"/>
	</g>
	<rect x="0.5" y="97.6" class="st1" width="4.2" height="1.4"/>
	<path class="st0" d="M3.9,98.3L3.9,98.3c0,0.8-0.6,1.4-1.4,1.4S1,99.1,1,98.4l0,0L3.9,98.3L3.9,98.3z"/>
	<g>
		<rect x="0.5" y="97.6" class="st1" width="4.2" height="7.1"/>
	</g>
	<path class="st0" d="M1,109.8L1,109.8c0-0.8,0.6-1.4,1.4-1.4s1.4,0.6,1.4,1.4l0,0H1z"/>
	<g>
		<rect x="0.5" y="103.3" class="st1" width="4.2" height="7.1"/>
	</g>
	<rect x="0.5" y="109" class="st1" width="4.2" height="1.4"/>
	<path class="st0" d="M3.9,109.8L3.9,109.8c0,0.8-0.6,1.4-1.4,1.4S1,110.6,1,109.8l0,0H3.9z"/>
	<g>
		<rect x="0.5" y="109" class="st1" width="4.2" height="7.1"/>
	</g>
	<path class="st0" d="M1,121.3c0-0.8,0.6-1.4,1.4-1.4s1.4,0.6,1.4,1.4l0,0H1z"/>
	<g>
		<rect x="0.5" y="114.6" class="st1" width="4.2" height="7.1"/>
	</g>
	<rect x="0.5" y="120.3" class="st1" width="4.2" height="1.4"/>
	<path class="st0" d="M3.9,121.3L3.9,121.3c0,0.8-0.6,1.4-1.4,1.4S1,122.1,1,121.3l0,0H3.9z"/>
	<g>
		<rect x="0.5" y="120.3" class="st1" width="4.2" height="7.1"/>
	</g>
	<path class="st0" d="M1,132.7L1,132.7c0-0.8,0.6-1.4,1.4-1.4s1.4,0.6,1.4,1.4l0,0H1z"/>
	<g>
		<rect x="0.5" y="125.9" class="st1" width="4.2" height="7.1"/>
	</g>
	<rect x="0.5" y="131.6" class="st1" width="4.2" height="1.4"/>
	<path class="st0" d="M3.9,132.7L3.9,132.7c0,0.8-0.6,1.4-1.4,1.4S1,133.5,1,132.8l0,0h2.9V132.7z"/>
	<g>
		<rect x="0.5" y="131.6" class="st1" width="4.2" height="7.1"/>
	</g>
	<path class="st0" d="M1,144.2c0-0.8,0.6-1.4,1.4-1.4s1.4,0.6,1.4,1.4l0,0H1z"/>
	<g>
		<rect x="0.5" y="137.3" class="st1" width="4.2" height="7.1"/>
	</g>
	<rect x="0.5" y="142.9" class="st1" width="4.2" height="1.4"/>
	<path class="st0" d="M3.9,144.2L3.9,144.2c0,0.8-0.6,1.4-1.4,1.4S1,145,1,144.2l0,0H3.9z"/>
	<g>
		<rect x="0.5" y="142.9" class="st1" width="4.2" height="7.1"/>
	</g>
	<path class="st0" d="M1,155.7c0-0.8,0.6-1.4,1.4-1.4s1.4,0.6,1.4,1.4l0,0H1z"/>
	<g>
		<rect x="0.5" y="150" class="st1" width="4.2" height="7.1"/>
	</g>
	<rect x="0.5" y="155.7" class="st1" width="4.2" height="1.4"/>
	<path class="st0" d="M3.9,155.7L3.9,155.7c0,0.8-0.6,1.4-1.4,1.4S1,156.5,1,155.7l0,0H3.9z"/>
	<g>
		<rect x="0.5" y="155.7" class="st1" width="4.2" height="7.1"/>
	</g>
	<path class="st0" d="M1,167.1c0-0.8,0.6-1.4,1.4-1.4s1.4,0.6,1.4,1.4l0,0H1z"/>
	<g>
		<rect x="0.5" y="161.3" class="st1" width="4.2" height="7.1"/>
	</g>
	<rect x="0.5" y="167" class="st1" width="4.2" height="1.4"/>
	<path class="st0" d="M3.9,167.1L3.9,167.1c0,0.8-0.6,1.4-1.4,1.4S1,167.9,1,167.2l0,0L3.9,167.1L3.9,167.1z"/>
	<g>
		<rect x="0.5" y="167" class="st1" width="4.2" height="7.1"/>
	</g>
	<path class="st0" d="M1,178.6c0-0.8,0.6-1.4,1.4-1.4s1.4,0.6,1.4,1.4l0,0H1z"/>
	<g>
		<rect x="0.5" y="172.6" class="st1" width="4.2" height="7.1"/>
	</g>
	<rect x="0.5" y="178.3" class="st1" width="4.2" height="1.4"/>
	<path class="st0" d="M3.9,178.6L3.9,178.6c0,0.8-0.6,1.4-1.4,1.4S1,179.4,1,178.6l0,0H3.9z"/>
	<g>
		<rect x="0.5" y="178.3" class="st1" width="4.2" height="7.1"/>
	</g>
	<path class="st0" d="M1,190.1c0-0.8,0.6-1.4,1.4-1.4s1.4,0.6,1.4,1.4l0,0H1z"/>
	<g>
		<rect x="0.5" y="184" class="st1" width="4.2" height="7.1"/>
	</g>
	<rect x="0.5" y="189.6" class="st1" width="4.2" height="1.4"/>
	<path class="st0" d="M3.9,190.1L3.9,190.1c0,0.8-0.6,1.4-1.4,1.4S1,190.9,1,190.1l0,0H3.9z"/>
	<g>
		<rect x="0.5" y="189.6" class="st1" width="4.2" height="7.1"/>
	</g>
	<path class="st0" d="M1,201.5c0-0.8,0.6-1.4,1.4-1.4s1.4,0.6,1.4,1.4l0,0H1z"/>
	<g>
		<rect x="0.5" y="195.3" class="st1" width="4.2" height="7.1"/>
	</g>
	<rect x="0.5" y="200.9" class="st1" width="4.2" height="1.4"/>
	<path class="st0" d="M3.9,201.5L3.9,201.5c0,0.8-0.6,1.4-1.4,1.4S1,202.3,1,201.6l0,0h2.9V201.5z"/>
	<g>
		<rect x="0.5" y="200.9" class="st1" width="4.2" height="7.1"/>
	</g>
	<path class="st0" d="M1,213c0-0.8,0.6-1.4,1.4-1.4s1.4,0.6,1.4,1.4l0,0H1z"/>
	<g>
		<rect x="0.5" y="206.6" class="st1" width="4.2" height="7.1"/>
	</g>
	<rect x="0.5" y="212.3" class="st1" width="4.2" height="1.4"/>
	<path class="st0" d="M3.9,213L3.9,213c0,0.8-0.6,1.4-1.4,1.4S1,213.8,1,213l0,0H3.9z"/>
	<g>
		<rect x="0.5" y="212.3" class="st1" width="4.2" height="7.1"/>
	</g>
	<path class="st0" d="M1,224.5c0-0.8,0.6-1.4,1.4-1.4s1.4,0.6,1.4,1.4l0,0H1z"/>
	<g>
		<rect x="0.5" y="217.9" class="st1" width="4.2" height="7.1"/>
	</g>
	<rect x="0.5" y="223.6" class="st1" width="4.2" height="1.4"/>
	<path class="st0" d="M3.9,224.5L3.9,224.5c0,0.8-0.6,1.4-1.4,1.4S1,225.3,1,224.5l0,0H3.9z"/>
	<g>
		<rect x="0.5" y="223.6" class="st1" width="4.2" height="7.1"/>
	</g>
	<path class="st0" d="M1,235.9c0-0.8,0.6-1.4,1.4-1.4s1.4,0.6,1.4,1.4l0,0H1z"/>
	<g>
		<rect x="0.5" y="229.2" class="st1" width="4.2" height="7.1"/>
	</g>
	<rect x="0.5" y="234.9" class="st1" width="4.2" height="1.4"/>
	<path class="st0" d="M3.9,235.9L3.9,235.9c0,0.8-0.6,1.4-1.4,1.4S1,236.7,1,236l0,0h2.9V235.9z"/>
	<g>
		<rect x="0.5" y="234.9" class="st1" width="4.2" height="7.1"/>
	</g>
	<path class="st0" d="M1,247.4c0-0.8,0.6-1.4,1.4-1.4s1.4,0.6,1.4,1.4l0,0H1z"/>
	<g>
		<rect x="0.5" y="240.6" class="st1" width="4.2" height="7.1"/>
	</g>
	<rect x="0.5" y="246.2" class="st1" width="4.2" height="1.4"/>
	<path class="st0" d="M3.9,247.4L3.9,247.4c0,0.8-0.6,1.4-1.4,1.4S1,248.2,1,247.4l0,0H3.9z"/>
	<g>
		<rect x="0.5" y="246.2" class="st1" width="4.2" height="7.1"/>
	</g>
	<path class="st0" d="M1,258.9c0-0.8,0.6-1.4,1.4-1.4s1.4,0.6,1.4,1.4l0,0H1z"/>
	<g>
		<rect x="0.5" y="251.9" class="st1" width="4.2" height="7.1"/>
	</g>
	<rect x="0.5" y="257.5" class="st1" width="4.2" height="1.4"/>
	<path class="st0" d="M3.9,258.9L3.9,258.9c0,0.8-0.6,1.4-1.4,1.4S1,259.7,1,258.9l0,0H3.9z"/>
	<g>
		<rect x="0.5" y="257.5" class="st1" width="4.2" height="7.1"/>
	</g>
	<path class="st0" d="M1,270.3c0-0.8,0.6-1.4,1.4-1.4s1.4,0.6,1.4,1.4l0,0H1z"/>
	<g>
		<rect x="0.5" y="264.6" class="st1" width="4.2" height="7.1"/>
	</g>
	<rect x="0.5" y="270.3" class="st1" width="4.2" height="1.4"/>
	<path class="st0" d="M3.9,270.3L3.9,270.3c0,0.8-0.6,1.4-1.4,1.4S1,271.1,1,270.4l0,0h2.9V270.3z"/>
	<g>
		<rect x="0.5" y="270.3" class="st1" width="4.2" height="7.1"/>
	</g>
	<path class="st0" d="M1,281.8c0-0.8,0.6-1.4,1.4-1.4s1.4,0.6,1.4,1.4l0,0H1z"/>
	<g>
		<rect x="0.5" y="275.9" class="st1" width="4.2" height="7.1"/>
	</g>
	<rect x="0.5" y="281.6" class="st1" width="4.2" height="1.4"/>
	<path class="st0" d="M3.9,281.8L3.9,281.8c0,0.8-0.6,1.4-1.4,1.4S1,282.6,1,281.8l0,0H3.9z"/>
	<g>
		<rect x="0.5" y="281.6" class="st1" width="4.2" height="7.1"/>
	</g>
	<path class="st0" d="M1,293.3L1,293.3c0-0.8,0.6-1.4,1.4-1.4s1.4,0.6,1.4,1.4l0,0H1z"/>
	<g>
		<rect x="0.5" y="287.3" class="st1" width="4.2" height="7.1"/>
	</g>
	<rect x="0.5" y="292.9" class="st1" width="4.2" height="1.4"/>
	<path class="st0" d="M3.9,293.3L3.9,293.3c0,0.8-0.6,1.4-1.4,1.4S1,294.1,1,293.3l0,0H3.9z"/>
	<g>
		<rect x="0.5" y="292.9" class="st1" width="4.2" height="7.1"/>
	</g>
	<path class="st0" d="M12.9,6.6c0-0.8,0.6-1.4,1.4-1.4s1.4,0.6,1.4,1.4H12.9z"/>
	<g>
		<rect x="11.8" class="st1" width="4.2" height="7.1"/>
	</g>
	<rect x="11.8" y="5.7" class="st1" width="4.2" height="1.4"/>
	<path class="st0" d="M15.7,6.6c0,0.8-0.6,1.4-1.4,1.4s-1.4-0.6-1.4-1.4l0,0H15.7z"/>
	<g>
		<rect x="11.8" y="5.7" class="st1" width="4.2" height="7.1"/>
	</g>
	<path class="st0" d="M12.9,18.1c0-0.8,0.6-1.4,1.4-1.4s1.4,0.6,1.4,1.4l0,0H12.9z"/>
	<g>
		<rect x="11.8" y="11.3" class="st1" width="4.2" height="7.1"/>
	</g>
	<rect x="11.8" y="17" class="st1" width="4.2" height="1.4"/>
	<path class="st0" d="M15.7,18.1L15.7,18.1c0,0.8-0.6,1.4-1.4,1.4s-1.4-0.6-1.4-1.4l0,0H15.7z"/>
	<g>
		<rect x="11.8" y="17" class="st1" width="4.2" height="7.1"/>
	</g>
	<path class="st0" d="M12.9,29.5L12.9,29.5c0-0.8,0.6-1.4,1.4-1.4s1.4,0.6,1.4,1.4l0,0H12.9z"/>
	<g>
		<rect x="11.8" y="22.6" class="st1" width="4.2" height="7.1"/>
	</g>
	<rect x="11.8" y="28.3" class="st1" width="4.2" height="1.4"/>
	<path class="st0" d="M15.7,29.5L15.7,29.5c0,0.8-0.6,1.4-1.4,1.4s-1.4-0.6-1.4-1.4l0,0H15.7z"/>
	<g>
		<rect x="11.8" y="28.3" class="st1" width="4.2" height="7.1"/>
	</g>
	<path class="st0" d="M12.9,41c0-0.8,0.6-1.4,1.4-1.4s1.4,0.6,1.4,1.4l0,0H12.9z"/>
	<g>
		<rect x="11.8" y="34" class="st1" width="4.2" height="7.1"/>
	</g>
	<rect x="11.8" y="39.6" class="st1" width="4.2" height="1.4"/>
	<path class="st0" d="M15.7,41L15.7,41c0,0.8-0.6,1.4-1.4,1.4s-1.4-0.6-1.4-1.4l0,0H15.7z"/>
	<g>
		<rect x="11.8" y="39.6" class="st1" width="4.2" height="7.1"/>
	</g>
	<path class="st0" d="M12.9,52.5L12.9,52.5c0-0.8,0.6-1.4,1.4-1.4s1.4,0.6,1.4,1.4l0,0H12.9z"/>
	<g>
		<rect x="11.8" y="46.7" class="st1" width="4.2" height="7.1"/>
	</g>
	<rect x="11.8" y="52.4" class="st1" width="4.2" height="1.4"/>
	<path class="st0" d="M15.7,52.5L15.7,52.5c0,0.8-0.6,1.4-1.4,1.4s-1.4-0.6-1.4-1.4l0,0H15.7z"/>
	<g>
		<rect x="11.8" y="52.4" class="st1" width="4.2" height="7.1"/>
	</g>
	<path class="st0" d="M12.9,63.9c0-0.8,0.6-1.4,1.4-1.4s1.4,0.6,1.4,1.4l0,0H12.9z"/>
	<g>
		<rect x="11.8" y="58" class="st1" width="4.2" height="7.1"/>
	</g>
	<rect x="11.8" y="63.7" class="st1" width="4.2" height="1.4"/>
	<path class="st0" d="M15.7,63.9L15.7,63.9c0,0.8-0.6,1.4-1.4,1.4s-1.4-0.6-1.4-1.4l0,0H15.7z"/>
	<g>
		<rect x="11.8" y="63.7" class="st1" width="4.2" height="7.1"/>
	</g>
	<path class="st0" d="M12.9,75.4c0-0.8,0.6-1.4,1.4-1.4s1.4,0.6,1.4,1.4l0,0H12.9z"/>
	<g>
		<rect x="11.8" y="69.3" class="st1" width="4.2" height="7.1"/>
	</g>
	<rect x="11.8" y="75" class="st1" width="4.2" height="1.4"/>
	<path class="st0" d="M15.7,75.4L15.7,75.4c0,0.8-0.6,1.4-1.4,1.4s-1.4-0.6-1.4-1.4l0,0H15.7z"/>
	<g>
		<rect x="11.8" y="75" class="st1" width="4.2" height="7.1"/>
	</g>
	<path class="st0" d="M12.9,86.9c0-0.8,0.6-1.4,1.4-1.4s1.4,0.6,1.4,1.4l0,0H12.9z"/>
	<g>
		<rect x="11.8" y="80.7" class="st1" width="4.2" height="7.1"/>
	</g>
	<rect x="11.8" y="86.3" class="st1" width="4.2" height="1.4"/>
	<path class="st0" d="M15.7,86.9L15.7,86.9c0,0.8-0.6,1.4-1.4,1.4s-1.4-0.6-1.4-1.4l0,0H15.7z"/>
	<g>
		<rect x="11.8" y="86.3" class="st1" width="4.2" height="7.1"/>
	</g>
	<path class="st0" d="M12.9,98.3c0-0.8,0.6-1.4,1.4-1.4s1.4,0.6,1.4,1.4l0,0H12.9z"/>
	<g>
		<rect x="11.8" y="92" class="st1" width="4.2" height="7.1"/>
	</g>
	<rect x="11.8" y="97.6" class="st1" width="4.2" height="1.4"/>
	<path class="st0" d="M15.7,98.3L15.7,98.3c0,0.8-0.6,1.4-1.4,1.4s-1.4-0.6-1.4-1.4l0,0H15.7z"/>
	<g>
		<rect x="11.8" y="97.6" class="st1" width="4.2" height="7.1"/>
	</g>
	<path class="st0" d="M12.9,109.8L12.9,109.8c0-0.8,0.6-1.4,1.4-1.4s1.4,0.6,1.4,1.4l0,0H12.9z"/>
	<g>
		<rect x="11.8" y="103.3" class="st1" width="4.2" height="7.1"/>
	</g>
	<rect x="11.8" y="109" class="st1" width="4.2" height="1.4"/>
	<path class="st0" d="M15.7,109.8L15.7,109.8c0,0.8-0.6,1.4-1.4,1.4s-1.4-0.6-1.4-1.4l0,0H15.7z"/>
	<g>
		<rect x="11.8" y="109" class="st1" width="4.2" height="7.1"/>
	</g>
	<path class="st0" d="M12.9,121.3c0-0.8,0.6-1.4,1.4-1.4s1.4,0.6,1.4,1.4l0,0H12.9z"/>
	<g>
		<rect x="11.8" y="114.6" class="st1" width="4.2" height="7.1"/>
	</g>
	<rect x="11.8" y="120.3" class="st1" width="4.2" height="1.4"/>
	<path class="st0" d="M15.7,121.3L15.7,121.3c0,0.8-0.6,1.4-1.4,1.4s-1.4-0.6-1.4-1.4l0,0H15.7z"/>
	<g>
		<rect x="11.8" y="120.3" class="st1" width="4.2" height="7.1"/>
	</g>
	<path class="st0" d="M12.9,132.7L12.9,132.7c0-0.8,0.6-1.4,1.4-1.4s1.4,0.6,1.4,1.4l0,0H12.9z"/>
	<g>
		<rect x="11.8" y="125.9" class="st1" width="4.2" height="7.1"/>
	</g>
	<rect x="11.8" y="131.6" class="st1" width="4.2" height="1.4"/>
	<path class="st0" d="M15.7,132.7L15.7,132.7c0,0.8-0.6,1.4-1.4,1.4s-1.4-0.6-1.4-1.4l0,0H15.7z"/>
	<g>
		<rect x="11.8" y="131.6" class="st1" width="4.2" height="7.1"/>
	</g>
	<path class="st0" d="M12.9,144.2c0-0.8,0.6-1.4,1.4-1.4s1.4,0.6,1.4,1.4l0,0H12.9z"/>
	<g>
		<rect x="11.8" y="137.3" class="st1" width="4.2" height="7.1"/>
	</g>
	<rect x="11.8" y="142.9" class="st1" width="4.2" height="1.4"/>
	<path class="st0" d="M15.7,144.2L15.7,144.2c0,0.8-0.6,1.4-1.4,1.4s-1.4-0.6-1.4-1.4l0,0H15.7z"/>
	<g>
		<rect x="11.8" y="142.9" class="st1" width="4.2" height="7.1"/>
	</g>
	<path class="st0" d="M12.9,155.7c0-0.8,0.6-1.4,1.4-1.4s1.4,0.6,1.4,1.4l0,0H12.9z"/>
	<g>
		<rect x="11.8" y="150" class="st1" width="4.2" height="7.1"/>
	</g>
	<rect x="11.8" y="155.7" class="st1" width="4.2" height="1.4"/>
	<path class="st0" d="M15.7,155.7L15.7,155.7c0,0.8-0.6,1.4-1.4,1.4s-1.4-0.6-1.4-1.4l0,0H15.7z"/>
	<g>
		<rect x="11.8" y="155.7" class="st1" width="4.2" height="7.1"/>
	</g>
	<path class="st0" d="M12.9,167.1c0-0.8,0.6-1.4,1.4-1.4s1.4,0.6,1.4,1.4l0,0H12.9z"/>
	<g>
		<rect x="11.8" y="161.3" class="st1" width="4.2" height="7.1"/>
	</g>
	<rect x="11.8" y="167" class="st1" width="4.2" height="1.4"/>
	<path class="st0" d="M15.7,167.1L15.7,167.1c0,0.8-0.6,1.4-1.4,1.4s-1.4-0.6-1.4-1.4l0,0H15.7z"/>
	<g>
		<rect x="11.8" y="167" class="st1" width="4.2" height="7.1"/>
	</g>
	<path class="st0" d="M12.9,178.6c0-0.8,0.6-1.4,1.4-1.4s1.4,0.6,1.4,1.4l0,0H12.9z"/>
	<g>
		<rect x="11.8" y="172.6" class="st1" width="4.2" height="7.1"/>
	</g>
	<rect x="11.8" y="178.3" class="st1" width="4.2" height="1.4"/>
	<path class="st0" d="M15.7,178.6L15.7,178.6c0,0.8-0.6,1.4-1.4,1.4s-1.4-0.6-1.4-1.4l0,0H15.7z"/>
	<g>
		<rect x="11.8" y="178.3" class="st1" width="4.2" height="7.1"/>
	</g>
	<path class="st0" d="M12.9,190.1c0-0.8,0.6-1.4,1.4-1.4s1.4,0.6,1.4,1.4l0,0H12.9z"/>
	<g>
		<rect x="11.8" y="184" class="st1" width="4.2" height="7.1"/>
	</g>
	<rect x="11.8" y="189.6" class="st1" width="4.2" height="1.4"/>
	<path class="st0" d="M15.7,190.1L15.7,190.1c0,0.8-0.6,1.4-1.4,1.4s-1.4-0.6-1.4-1.4l0,0H15.7z"/>
	<g>
		<rect x="11.8" y="189.6" class="st1" width="4.2" height="7.1"/>
	</g>
	<path class="st0" d="M12.9,201.5c0-0.8,0.6-1.4,1.4-1.4s1.4,0.6,1.4,1.4l0,0H12.9z"/>
	<g>
		<rect x="11.8" y="195.3" class="st1" width="4.2" height="7.1"/>
	</g>
	<rect x="11.8" y="200.9" class="st1" width="4.2" height="1.4"/>
	<path class="st0" d="M15.7,201.5L15.7,201.5c0,0.8-0.6,1.4-1.4,1.4s-1.4-0.6-1.4-1.4l0,0H15.7z"/>
	<g>
		<rect x="11.8" y="200.9" class="st1" width="4.2" height="7.1"/>
	</g>
	<path class="st0" d="M12.9,213c0-0.8,0.6-1.4,1.4-1.4s1.4,0.6,1.4,1.4l0,0H12.9z"/>
	<g>
		<rect x="11.8" y="206.6" class="st1" width="4.2" height="7.1"/>
	</g>
	<rect x="11.8" y="212.3" class="st1" width="4.2" height="1.4"/>
	<path class="st0" d="M15.7,213L15.7,213c0,0.8-0.6,1.4-1.4,1.4s-1.4-0.6-1.4-1.4l0,0H15.7z"/>
	<g>
		<rect x="11.8" y="212.3" class="st1" width="4.2" height="7.1"/>
	</g>
	<path class="st0" d="M12.9,224.5c0-0.8,0.6-1.4,1.4-1.4s1.4,0.6,1.4,1.4l0,0H12.9z"/>
	<g>
		<rect x="11.8" y="217.9" class="st1" width="4.2" height="7.1"/>
	</g>
	<rect x="11.8" y="223.6" class="st1" width="4.2" height="1.4"/>
	<path class="st0" d="M15.7,224.5L15.7,224.5c0,0.8-0.6,1.4-1.4,1.4s-1.4-0.6-1.4-1.4l0,0H15.7z"/>
	<g>
		<rect x="11.8" y="223.6" class="st1" width="4.2" height="7.1"/>
	</g>
	<path class="st0" d="M12.9,235.9c0-0.8,0.6-1.4,1.4-1.4s1.4,0.6,1.4,1.4l0,0H12.9z"/>
	<g>
		<rect x="11.8" y="229.2" class="st1" width="4.2" height="7.1"/>
	</g>
	<rect x="11.8" y="234.9" class="st1" width="4.2" height="1.4"/>
	<path class="st0" d="M15.7,235.9L15.7,235.9c0,0.8-0.6,1.4-1.4,1.4s-1.4-0.6-1.4-1.4l0,0H15.7z"/>
	<g>
		<rect x="11.8" y="234.9" class="st1" width="4.2" height="7.1"/>
	</g>
	<path class="st0" d="M12.9,247.4c0-0.8,0.6-1.4,1.4-1.4s1.4,0.6,1.4,1.4l0,0H12.9z"/>
	<g>
		<rect x="11.8" y="240.6" class="st1" width="4.2" height="7.1"/>
	</g>
	<rect x="11.8" y="246.2" class="st1" width="4.2" height="1.4"/>
	<path class="st0" d="M15.7,247.4L15.7,247.4c0,0.8-0.6,1.4-1.4,1.4s-1.4-0.6-1.4-1.4l0,0H15.7z"/>
	<g>
		<rect x="11.8" y="246.2" class="st1" width="4.2" height="7.1"/>
	</g>
	<path class="st0" d="M12.9,258.9c0-0.8,0.6-1.4,1.4-1.4s1.4,0.6,1.4,1.4l0,0H12.9z"/>
	<g>
		<rect x="11.8" y="251.9" class="st1" width="4.2" height="7.1"/>
	</g>
	<rect x="11.8" y="257.5" class="st1" width="4.2" height="1.4"/>
	<path class="st0" d="M15.7,258.9L15.7,258.9c0,0.8-0.6,1.4-1.4,1.4s-1.4-0.6-1.4-1.4l0,0H15.7z"/>
	<g>
		<rect x="11.8" y="257.5" class="st1" width="4.2" height="7.1"/>
	</g>
	<path class="st0" d="M12.9,270.3c0-0.8,0.6-1.4,1.4-1.4s1.4,0.6,1.4,1.4l0,0H12.9z"/>
	<g>
		<rect x="11.8" y="264.6" class="st1" width="4.2" height="7.1"/>
	</g>
	<rect x="11.8" y="270.3" class="st1" width="4.2" height="1.4"/>
	<path class="st0" d="M15.7,270.3L15.7,270.3c0,0.8-0.6,1.4-1.4,1.4s-1.4-0.6-1.4-1.4l0,0H15.7z"/>
	<g>
		<rect x="11.8" y="270.3" class="st1" width="4.2" height="7.1"/>
	</g>
	<path class="st0" d="M12.9,281.8c0-0.8,0.6-1.4,1.4-1.4s1.4,0.6,1.4,1.4l0,0H12.9z"/>
	<g>
		<rect x="11.8" y="275.9" class="st1" width="4.2" height="7.1"/>
	</g>
	<rect x="11.8" y="281.6" class="st1" width="4.2" height="1.4"/>
	<path class="st0" d="M15.7,281.8L15.7,281.8c0,0.8-0.6,1.4-1.4,1.4s-1.4-0.6-1.4-1.4l0,0H15.7z"/>
	<g>
		<rect x="11.8" y="281.6" class="st1" width="4.2" height="7.1"/>
	</g>
	<path class="st0" d="M12.9,293.3L12.9,293.3c0-0.8,0.6-1.4,1.4-1.4s1.4,0.6,1.4,1.4l0,0H12.9z"/>
	<g>
		<rect x="11.8" y="287.3" class="st1" width="4.2" height="7.1"/>
	</g>
	<rect x="11.8" y="292.9" class="st1" width="4.2" height="1.4"/>
	<path class="st0" d="M15.7,293.3L15.7,293.3c0,0.8-0.6,1.4-1.4,1.4s-1.4-0.6-1.4-1.4l0,0H15.7z"/>
	<g>
		<rect x="11.8" y="292.9" class="st1" width="4.2" height="7.1"/>
	</g>
	<path class="st0" d="M24.7,6.6c0-0.8,0.6-1.4,1.4-1.4s1.4,0.6,1.4,1.4H24.7z"/>
	<g>
		<rect x="24.5" class="st1" width="4.2" height="7.1"/>
	</g>
	<rect x="24.5" y="5.7" class="st1" width="4.2" height="1.4"/>
	<path class="st0" d="M27.6,6.6C27.6,7.4,27,8,26.2,8s-1.4-0.6-1.4-1.4l0,0H27.6z"/>
	<g>
		<rect x="24.5" y="5.7" class="st1" width="4.2" height="7.1"/>
	</g>
	<path class="st0" d="M24.7,18.1c0-0.8,0.6-1.4,1.4-1.4s1.4,0.6,1.4,1.4l0,0H24.7z"/>
	<g>
		<rect x="24.5" y="11.3" class="st1" width="4.2" height="7.1"/>
	</g>
	<rect x="24.5" y="17" class="st1" width="4.2" height="1.4"/>
	<path class="st0" d="M27.6,18.1L27.6,18.1c0,0.8-0.6,1.4-1.4,1.4s-1.4-0.6-1.4-1.4l0,0H27.6z"/>
	<g>
		<rect x="24.5" y="17" class="st1" width="4.2" height="7.1"/>
	</g>
	<path class="st0" d="M24.7,29.5L24.7,29.5c0-0.8,0.6-1.4,1.4-1.4s1.4,0.6,1.4,1.4l0,0H24.7z"/>
	<g>
		<rect x="24.5" y="22.6" class="st1" width="4.2" height="7.1"/>
	</g>
	<rect x="24.5" y="28.3" class="st1" width="4.2" height="1.4"/>
	<path class="st0" d="M27.6,29.5L27.6,29.5c0,0.8-0.6,1.4-1.4,1.4s-1.4-0.6-1.4-1.4l0,0H27.6z"/>
	<g>
		<rect x="24.5" y="28.3" class="st1" width="4.2" height="7.1"/>
	</g>
	<path class="st0" d="M24.7,41c0-0.8,0.6-1.4,1.4-1.4s1.4,0.6,1.4,1.4l0,0H24.7z"/>
	<g>
		<rect x="24.5" y="34" class="st1" width="4.2" height="7.1"/>
	</g>
	<rect x="24.5" y="39.6" class="st1" width="4.2" height="1.4"/>
	<path class="st0" d="M27.6,41L27.6,41c0,0.8-0.6,1.4-1.4,1.4s-1.4-0.6-1.4-1.4l0,0H27.6z"/>
	<g>
		<rect x="24.5" y="39.6" class="st1" width="4.2" height="7.1"/>
	</g>
	<path class="st0" d="M24.7,52.5L24.7,52.5c0-0.8,0.6-1.4,1.4-1.4s1.4,0.6,1.4,1.4l0,0H24.7z"/>
	<g>
		<rect x="24.5" y="46.7" class="st1" width="4.2" height="7.1"/>
	</g>
	<rect x="24.5" y="52.4" class="st1" width="4.2" height="1.4"/>
	<path class="st0" d="M27.6,52.5L27.6,52.5c0,0.8-0.6,1.4-1.4,1.4s-1.4-0.6-1.4-1.4l0,0H27.6z"/>
	<g>
		<rect x="24.5" y="52.4" class="st1" width="4.2" height="7.1"/>
	</g>
	<path class="st0" d="M24.7,63.9c0-0.8,0.6-1.4,1.4-1.4s1.4,0.6,1.4,1.4l0,0H24.7z"/>
	<g>
		<rect x="24.5" y="58" class="st1" width="4.2" height="7.1"/>
	</g>
	<rect x="24.5" y="63.7" class="st1" width="4.2" height="1.4"/>
	<path class="st0" d="M27.6,63.9L27.6,63.9c0,0.8-0.6,1.4-1.4,1.4s-1.4-0.6-1.4-1.4l0,0H27.6z"/>
	<g>
		<rect x="24.5" y="63.7" class="st1" width="4.2" height="7.1"/>
	</g>
	<path class="st0" d="M24.7,75.4c0-0.8,0.6-1.4,1.4-1.4s1.4,0.6,1.4,1.4l0,0H24.7z"/>
	<g>
		<rect x="24.5" y="69.3" class="st1" width="4.2" height="7.1"/>
	</g>
	<rect x="24.5" y="75" class="st1" width="4.2" height="1.4"/>
	<path class="st0" d="M27.6,75.4L27.6,75.4c0,0.8-0.6,1.4-1.4,1.4s-1.4-0.6-1.4-1.4l0,0H27.6z"/>
	<g>
		<rect x="24.5" y="75" class="st1" width="4.2" height="7.1"/>
	</g>
	<path class="st0" d="M24.7,86.9c0-0.8,0.6-1.4,1.4-1.4s1.4,0.6,1.4,1.4l0,0H24.7z"/>
	<g>
		<rect x="24.5" y="80.7" class="st1" width="4.2" height="7.1"/>
	</g>
	<rect x="24.5" y="86.3" class="st1" width="4.2" height="1.4"/>
	<path class="st0" d="M27.6,86.9L27.6,86.9c0,0.8-0.6,1.4-1.4,1.4s-1.4-0.6-1.4-1.4l0,0H27.6z"/>
	<g>
		<rect x="24.5" y="86.3" class="st1" width="4.2" height="7.1"/>
	</g>
	<path class="st0" d="M24.7,98.3c0-0.8,0.6-1.4,1.4-1.4s1.4,0.6,1.4,1.4l0,0H24.7z"/>
	<g>
		<rect x="24.5" y="92" class="st1" width="4.2" height="7.1"/>
	</g>
	<rect x="24.5" y="97.6" class="st1" width="4.2" height="1.4"/>
	<path class="st0" d="M27.6,98.3L27.6,98.3c0,0.8-0.6,1.4-1.4,1.4s-1.4-0.6-1.4-1.4l0,0H27.6z"/>
	<g>
		<rect x="24.5" y="97.6" class="st1" width="4.2" height="7.1"/>
	</g>
	<path class="st0" d="M24.7,109.8L24.7,109.8c0-0.8,0.6-1.4,1.4-1.4s1.4,0.6,1.4,1.4l0,0H24.7z"/>
	<g>
		<rect x="24.5" y="103.3" class="st1" width="4.2" height="7.1"/>
	</g>
	<rect x="24.5" y="109" class="st1" width="4.2" height="1.4"/>
	<path class="st0" d="M27.6,109.8L27.6,109.8c0,0.8-0.6,1.4-1.4,1.4s-1.4-0.6-1.4-1.4l0,0H27.6z"/>
	<g>
		<rect x="24.5" y="109" class="st1" width="4.2" height="7.1"/>
	</g>
	<path class="st0" d="M24.7,121.3c0-0.8,0.6-1.4,1.4-1.4s1.4,0.6,1.4,1.4l0,0H24.7z"/>
	<g>
		<rect x="24.5" y="114.6" class="st1" width="4.2" height="7.1"/>
	</g>
	<rect x="24.5" y="120.3" class="st1" width="4.2" height="1.4"/>
	<path class="st0" d="M27.6,121.3L27.6,121.3c0,0.8-0.6,1.4-1.4,1.4s-1.4-0.6-1.4-1.4l0,0H27.6z"/>
	<g>
		<rect x="24.5" y="120.3" class="st1" width="4.2" height="7.1"/>
	</g>
	<path class="st0" d="M24.7,132.7L24.7,132.7c0-0.8,0.6-1.4,1.4-1.4s1.4,0.6,1.4,1.4l0,0H24.7z"/>
	<g>
		<rect x="24.5" y="125.9" class="st1" width="4.2" height="7.1"/>
	</g>
	<rect x="24.5" y="131.6" class="st1" width="4.2" height="1.4"/>
	<path class="st0" d="M27.6,132.7L27.6,132.7c0,0.8-0.6,1.4-1.4,1.4s-1.4-0.6-1.4-1.4l0,0H27.6z"/>
	<g>
		<rect x="24.5" y="131.6" class="st1" width="4.2" height="7.1"/>
	</g>
	<path class="st0" d="M24.7,144.2c0-0.8,0.6-1.4,1.4-1.4s1.4,0.6,1.4,1.4l0,0H24.7z"/>
	<g>
		<rect x="24.5" y="137.3" class="st1" width="4.2" height="7.1"/>
	</g>
	<rect x="24.5" y="142.9" class="st1" width="4.2" height="1.4"/>
	<path class="st0" d="M27.6,144.2L27.6,144.2c0,0.8-0.6,1.4-1.4,1.4s-1.4-0.6-1.4-1.4l0,0H27.6z"/>
	<g>
		<rect x="24.5" y="142.9" class="st1" width="4.2" height="7.1"/>
	</g>
	<path class="st0" d="M24.7,155.7c0-0.8,0.6-1.4,1.4-1.4s1.4,0.6,1.4,1.4l0,0H24.7z"/>
	<g>
		<rect x="24.5" y="150" class="st1" width="4.2" height="7.1"/>
	</g>
	<rect x="24.5" y="155.7" class="st1" width="4.2" height="1.4"/>
	<path class="st0" d="M27.6,155.7L27.6,155.7c0,0.8-0.6,1.4-1.4,1.4s-1.4-0.6-1.4-1.4l0,0H27.6z"/>
	<g>
		<rect x="24.5" y="155.7" class="st1" width="4.2" height="7.1"/>
	</g>
	<path class="st0" d="M24.7,167.1c0-0.8,0.6-1.4,1.4-1.4s1.4,0.6,1.4,1.4l0,0H24.7z"/>
	<g>
		<rect x="24.5" y="161.3" class="st1" width="4.2" height="7.1"/>
	</g>
	<rect x="24.5" y="167" class="st1" width="4.2" height="1.4"/>
	<path class="st0" d="M27.6,167.1L27.6,167.1c0,0.8-0.6,1.4-1.4,1.4s-1.4-0.6-1.4-1.4l0,0H27.6z"/>
	<g>
		<rect x="24.5" y="167" class="st1" width="4.2" height="7.1"/>
	</g>
	<path class="st0" d="M24.7,178.6c0-0.8,0.6-1.4,1.4-1.4s1.4,0.6,1.4,1.4l0,0H24.7z"/>
	<g>
		<rect x="24.5" y="172.6" class="st1" width="4.2" height="7.1"/>
	</g>
	<rect x="24.5" y="178.3" class="st1" width="4.2" height="1.4"/>
	<path class="st0" d="M27.6,178.6L27.6,178.6c0,0.8-0.6,1.4-1.4,1.4s-1.4-0.6-1.4-1.4l0,0H27.6z"/>
	<g>
		<rect x="24.5" y="178.3" class="st1" width="4.2" height="7.1"/>
	</g>
	<path class="st0" d="M24.7,190.1c0-0.8,0.6-1.4,1.4-1.4s1.4,0.6,1.4,1.4l0,0H24.7z"/>
	<g>
		<rect x="24.5" y="184" class="st1" width="4.2" height="7.1"/>
	</g>
	<rect x="24.5" y="189.6" class="st1" width="4.2" height="1.4"/>
	<path class="st0" d="M27.6,190.1L27.6,190.1c0,0.8-0.6,1.4-1.4,1.4s-1.4-0.6-1.4-1.4l0,0H27.6z"/>
	<g>
		<rect x="24.5" y="189.6" class="st1" width="4.2" height="7.1"/>
	</g>
	<path class="st0" d="M24.7,201.5c0-0.8,0.6-1.4,1.4-1.4s1.4,0.6,1.4,1.4l0,0H24.7z"/>
	<g>
		<rect x="24.5" y="195.3" class="st1" width="4.2" height="7.1"/>
	</g>
	<rect x="24.5" y="200.9" class="st1" width="4.2" height="1.4"/>
	<path class="st0" d="M27.6,201.5L27.6,201.5c0,0.8-0.6,1.4-1.4,1.4s-1.4-0.6-1.4-1.4l0,0H27.6z"/>
	<g>
		<rect x="24.5" y="200.9" class="st1" width="4.2" height="7.1"/>
	</g>
	<path class="st0" d="M24.7,213c0-0.8,0.6-1.4,1.4-1.4s1.4,0.6,1.4,1.4l0,0H24.7z"/>
	<g>
		<rect x="24.5" y="206.6" class="st1" width="4.2" height="7.1"/>
	</g>
	<rect x="24.5" y="212.3" class="st1" width="4.2" height="1.4"/>
	<path class="st0" d="M27.6,213L27.6,213c0,0.8-0.6,1.4-1.4,1.4s-1.4-0.6-1.4-1.4l0,0H27.6z"/>
	<g>
		<rect x="24.5" y="212.3" class="st1" width="4.2" height="7.1"/>
	</g>
	<path class="st0" d="M24.7,224.5c0-0.8,0.6-1.4,1.4-1.4s1.4,0.6,1.4,1.4l0,0H24.7z"/>
	<g>
		<rect x="24.5" y="217.9" class="st1" width="4.2" height="7.1"/>
	</g>
	<rect x="24.5" y="223.6" class="st1" width="4.2" height="1.4"/>
	<path class="st0" d="M27.6,224.5L27.6,224.5c0,0.8-0.6,1.4-1.4,1.4s-1.4-0.6-1.4-1.4l0,0H27.6z"/>
	<g>
		<rect x="24.5" y="223.6" class="st1" width="4.2" height="7.1"/>
	</g>
	<path class="st0" d="M24.7,235.9c0-0.8,0.6-1.4,1.4-1.4s1.4,0.6,1.4,1.4l0,0H24.7z"/>
	<g>
		<rect x="24.5" y="229.2" class="st1" width="4.2" height="7.1"/>
	</g>
	<rect x="24.5" y="234.9" class="st1" width="4.2" height="1.4"/>
	<path class="st0" d="M27.6,235.9L27.6,235.9c0,0.8-0.6,1.4-1.4,1.4s-1.4-0.6-1.4-1.4l0,0H27.6z"/>
	<g>
		<rect x="24.5" y="234.9" class="st1" width="4.2" height="7.1"/>
	</g>
	<path class="st0" d="M24.7,247.4c0-0.8,0.6-1.4,1.4-1.4s1.4,0.6,1.4,1.4l0,0H24.7z"/>
	<g>
		<rect x="24.5" y="240.6" class="st1" width="4.2" height="7.1"/>
	</g>
	<rect x="24.5" y="246.2" class="st1" width="4.2" height="1.4"/>
	<path class="st0" d="M27.6,247.4L27.6,247.4c0,0.8-0.6,1.4-1.4,1.4s-1.4-0.6-1.4-1.4l0,0H27.6z"/>
	<g>
		<rect x="24.5" y="246.2" class="st1" width="4.2" height="7.1"/>
	</g>
	<path class="st0" d="M24.7,258.9c0-0.8,0.6-1.4,1.4-1.4s1.4,0.6,1.4,1.4l0,0H24.7z"/>
	<g>
		<rect x="24.5" y="251.9" class="st1" width="4.2" height="7.1"/>
	</g>
	<rect x="24.5" y="257.5" class="st1" width="4.2" height="1.4"/>
	<path class="st0" d="M27.6,258.9L27.6,258.9c0,0.8-0.6,1.4-1.4,1.4s-1.4-0.6-1.4-1.4l0,0H27.6z"/>
	<g>
		<rect x="24.5" y="257.5" class="st1" width="4.2" height="7.1"/>
	</g>
	<path class="st0" d="M24.7,270.3c0-0.8,0.6-1.4,1.4-1.4s1.4,0.6,1.4,1.4l0,0H24.7z"/>
	<g>
		<rect x="24.5" y="264.6" class="st1" width="4.2" height="7.1"/>
	</g>
	<rect x="24.5" y="270.3" class="st1" width="4.2" height="1.4"/>
	<path class="st0" d="M27.6,270.3L27.6,270.3c0,0.8-0.6,1.4-1.4,1.4s-1.4-0.6-1.4-1.4l0,0H27.6z"/>
	<g>
		<rect x="24.5" y="270.3" class="st1" width="4.2" height="7.1"/>
	</g>
	<path class="st0" d="M24.7,281.8c0-0.8,0.6-1.4,1.4-1.4s1.4,0.6,1.4,1.4l0,0H24.7z"/>
	<g>
		<rect x="24.5" y="275.9" class="st1" width="4.2" height="7.1"/>
	</g>
	<rect x="24.5" y="281.6" class="st1" width="4.2" height="1.4"/>
	<path class="st0" d="M27.6,281.8L27.6,281.8c0,0.8-0.6,1.4-1.4,1.4s-1.4-0.6-1.4-1.4l0,0H27.6z"/>
	<g>
		<rect x="24.5" y="281.6" class="st1" width="4.2" height="7.1"/>
	</g>
	<path class="st0" d="M24.7,293.3L24.7,293.3c0-0.8,0.6-1.4,1.4-1.4s1.4,0.6,1.4,1.4l0,0H24.7z"/>
	<g>
		<rect x="24.5" y="287.3" class="st1" width="4.2" height="7.1"/>
	</g>
	<rect x="24.5" y="292.9" class="st1" width="4.2" height="1.4"/>
	<path class="st0" d="M27.6,293.3L27.6,293.3c0,0.8-0.6,1.4-1.4,1.4s-1.4-0.6-1.4-1.4l0,0H27.6z"/>
	<g>
		<rect x="24.5" y="292.9" class="st1" width="4.2" height="7.1"/>
	</g>
	<path class="st0" d="M36.6,6.6c0-0.8,0.6-1.4,1.4-1.4c0.8,0,1.4,0.6,1.4,1.4H36.6z"/>
	<g>
		<rect x="35.8" class="st1" width="4.2" height="7.1"/>
	</g>
	<rect x="35.8" y="5.7" class="st1" width="4.2" height="1.4"/>
	<path class="st0" d="M39.4,6.6C39.4,7.4,38.8,8,38,8s-1.4-0.6-1.4-1.4l0,0H39.4z"/>
	<g>
		<rect x="35.8" y="5.7" class="st1" width="4.2" height="7.1"/>
	</g>
	<path class="st0" d="M36.6,18.1c0-0.8,0.6-1.4,1.4-1.4c0.8,0,1.4,0.6,1.4,1.4l0,0H36.6z"/>
	<g>
		<rect x="35.8" y="11.3" class="st1" width="4.2" height="7.1"/>
	</g>
	<rect x="35.8" y="17" class="st1" width="4.2" height="1.4"/>
	<path class="st0" d="M39.4,18.1L39.4,18.1c0,0.8-0.6,1.4-1.4,1.4c-0.8,0-1.4-0.6-1.4-1.4l0,0H39.4z"/>
	<g>
		<rect x="35.8" y="17" class="st1" width="4.2" height="7.1"/>
	</g>
	<path class="st0" d="M36.6,29.5L36.6,29.5c0-0.8,0.6-1.4,1.4-1.4c0.8,0,1.4,0.6,1.4,1.4l0,0H36.6z"/>
	<g>
		<rect x="35.8" y="22.6" class="st1" width="4.2" height="7.1"/>
	</g>
	<rect x="35.8" y="28.3" class="st1" width="4.2" height="1.4"/>
	<path class="st0" d="M39.4,29.5L39.4,29.5c0,0.8-0.6,1.4-1.4,1.4c-0.8,0-1.4-0.6-1.4-1.4l0,0H39.4z"/>
	<g>
		<rect x="35.8" y="28.3" class="st1" width="4.2" height="7.1"/>
	</g>
	<path class="st0" d="M36.6,41c0-0.8,0.6-1.4,1.4-1.4c0.8,0,1.4,0.6,1.4,1.4l0,0H36.6z"/>
	<g>
		<rect x="35.8" y="34" class="st1" width="4.2" height="7.1"/>
	</g>
	<rect x="35.8" y="39.6" class="st1" width="4.2" height="1.4"/>
	<path class="st0" d="M39.4,41L39.4,41c0,0.8-0.6,1.4-1.4,1.4c-0.8,0-1.4-0.6-1.4-1.4l0,0H39.4z"/>
	<g>
		<rect x="35.8" y="39.6" class="st1" width="4.2" height="7.1"/>
	</g>
	<path class="st0" d="M36.6,52.5L36.6,52.5c0-0.8,0.6-1.4,1.4-1.4c0.8,0,1.4,0.6,1.4,1.4l0,0H36.6z"/>
	<g>
		<rect x="35.8" y="46.7" class="st1" width="4.2" height="7.1"/>
	</g>
	<rect x="35.8" y="52.4" class="st1" width="4.2" height="1.4"/>
	<path class="st0" d="M39.4,52.5L39.4,52.5c0,0.8-0.6,1.4-1.4,1.4c-0.8,0-1.4-0.6-1.4-1.4l0,0H39.4z"/>
	<g>
		<rect x="35.8" y="52.4" class="st1" width="4.2" height="7.1"/>
	</g>
	<path class="st0" d="M36.6,63.9c0-0.8,0.6-1.4,1.4-1.4c0.8,0,1.4,0.6,1.4,1.4l0,0H36.6z"/>
	<g>
		<rect x="35.8" y="58" class="st1" width="4.2" height="7.1"/>
	</g>
	<rect x="35.8" y="63.7" class="st1" width="4.2" height="1.4"/>
	<path class="st0" d="M39.4,63.9L39.4,63.9c0,0.8-0.6,1.4-1.4,1.4c-0.8,0-1.4-0.6-1.4-1.4l0,0H39.4z"/>
	<g>
		<rect x="35.8" y="63.7" class="st1" width="4.2" height="7.1"/>
	</g>
	<path class="st0" d="M36.6,75.4c0-0.8,0.6-1.4,1.4-1.4c0.8,0,1.4,0.6,1.4,1.4l0,0H36.6z"/>
	<g>
		<rect x="35.8" y="69.3" class="st1" width="4.2" height="7.1"/>
	</g>
	<rect x="35.8" y="75" class="st1" width="4.2" height="1.4"/>
	<path class="st0" d="M39.4,75.4L39.4,75.4c0,0.8-0.6,1.4-1.4,1.4c-0.8,0-1.4-0.6-1.4-1.4l0,0H39.4z"/>
	<g>
		<rect x="35.8" y="75" class="st1" width="4.2" height="7.1"/>
	</g>
	<path class="st0" d="M36.6,86.9c0-0.8,0.6-1.4,1.4-1.4c0.8,0,1.4,0.6,1.4,1.4l0,0H36.6z"/>
	<g>
		<rect x="35.8" y="80.7" class="st1" width="4.2" height="7.1"/>
	</g>
	<rect x="35.8" y="86.3" class="st1" width="4.2" height="1.4"/>
	<path class="st0" d="M39.4,86.9L39.4,86.9c0,0.8-0.6,1.4-1.4,1.4c-0.8,0-1.4-0.6-1.4-1.4l0,0H39.4z"/>
	<g>
		<rect x="35.8" y="86.3" class="st1" width="4.2" height="7.1"/>
	</g>
	<path class="st0" d="M36.6,98.3c0-0.8,0.6-1.4,1.4-1.4c0.8,0,1.4,0.6,1.4,1.4l0,0H36.6z"/>
	<g>
		<rect x="35.8" y="92" class="st1" width="4.2" height="7.1"/>
	</g>
	<rect x="35.8" y="97.6" class="st1" width="4.2" height="1.4"/>
	<path class="st0" d="M39.4,98.3L39.4,98.3c0,0.8-0.6,1.4-1.4,1.4c-0.8,0-1.4-0.6-1.4-1.4l0,0H39.4z"/>
	<g>
		<rect x="35.8" y="97.6" class="st1" width="4.2" height="7.1"/>
	</g>
	<path class="st0" d="M36.6,109.8L36.6,109.8c0-0.8,0.6-1.4,1.4-1.4c0.8,0,1.4,0.6,1.4,1.4l0,0H36.6z"/>
	<g>
		<rect x="35.8" y="103.3" class="st1" width="4.2" height="7.1"/>
	</g>
	<rect x="35.8" y="109" class="st1" width="4.2" height="1.4"/>
	<path class="st0" d="M39.4,109.8L39.4,109.8c0,0.8-0.6,1.4-1.4,1.4c-0.8,0-1.4-0.6-1.4-1.4l0,0H39.4z"/>
	<g>
		<rect x="35.8" y="109" class="st1" width="4.2" height="7.1"/>
	</g>
	<path class="st0" d="M36.6,121.3c0-0.8,0.6-1.4,1.4-1.4c0.8,0,1.4,0.6,1.4,1.4l0,0H36.6z"/>
	<g>
		<rect x="35.8" y="114.6" class="st1" width="4.2" height="7.1"/>
	</g>
	<rect x="35.8" y="120.3" class="st1" width="4.2" height="1.4"/>
	<path class="st0" d="M39.4,121.3L39.4,121.3c0,0.8-0.6,1.4-1.4,1.4c-0.8,0-1.4-0.6-1.4-1.4l0,0H39.4z"/>
	<g>
		<rect x="35.8" y="120.3" class="st1" width="4.2" height="7.1"/>
	</g>
	<path class="st0" d="M36.6,132.7L36.6,132.7c0-0.8,0.6-1.4,1.4-1.4c0.8,0,1.4,0.6,1.4,1.4l0,0H36.6z"/>
	<g>
		<rect x="35.8" y="125.9" class="st1" width="4.2" height="7.1"/>
	</g>
	<rect x="35.8" y="131.6" class="st1" width="4.2" height="1.4"/>
	<path class="st0" d="M39.4,132.7L39.4,132.7c0,0.8-0.6,1.4-1.4,1.4c-0.8,0-1.4-0.6-1.4-1.4l0,0H39.4z"/>
	<g>
		<rect x="35.8" y="131.6" class="st1" width="4.2" height="7.1"/>
	</g>
	<path class="st0" d="M36.6,144.2c0-0.8,0.6-1.4,1.4-1.4c0.8,0,1.4,0.6,1.4,1.4l0,0H36.6z"/>
	<g>
		<rect x="35.8" y="137.3" class="st1" width="4.2" height="7.1"/>
	</g>
	<rect x="35.8" y="142.9" class="st1" width="4.2" height="1.4"/>
	<path class="st0" d="M39.4,144.2L39.4,144.2c0,0.8-0.6,1.4-1.4,1.4c-0.8,0-1.4-0.6-1.4-1.4l0,0H39.4z"/>
	<g>
		<rect x="35.8" y="142.9" class="st1" width="4.2" height="7.1"/>
	</g>
	<path class="st0" d="M36.6,155.7c0-0.8,0.6-1.4,1.4-1.4c0.8,0,1.4,0.6,1.4,1.4l0,0H36.6z"/>
	<g>
		<rect x="35.8" y="150" class="st1" width="4.2" height="7.1"/>
	</g>
	<rect x="35.8" y="155.7" class="st1" width="4.2" height="1.4"/>
	<path class="st0" d="M39.4,155.7L39.4,155.7c0,0.8-0.6,1.4-1.4,1.4c-0.8,0-1.4-0.6-1.4-1.4l0,0H39.4z"/>
	<g>
		<rect x="35.8" y="155.7" class="st1" width="4.2" height="7.1"/>
	</g>
	<path class="st0" d="M36.6,167.1c0-0.8,0.6-1.4,1.4-1.4c0.8,0,1.4,0.6,1.4,1.4l0,0H36.6z"/>
	<g>
		<rect x="35.8" y="161.3" class="st1" width="4.2" height="7.1"/>
	</g>
	<rect x="35.8" y="167" class="st1" width="4.2" height="1.4"/>
	<path class="st0" d="M39.4,167.1L39.4,167.1c0,0.8-0.6,1.4-1.4,1.4c-0.8,0-1.4-0.6-1.4-1.4l0,0H39.4z"/>
	<g>
		<rect x="35.8" y="167" class="st1" width="4.2" height="7.1"/>
	</g>
	<path class="st0" d="M36.6,178.6c0-0.8,0.6-1.4,1.4-1.4c0.8,0,1.4,0.6,1.4,1.4l0,0H36.6z"/>
	<g>
		<rect x="35.8" y="172.6" class="st1" width="4.2" height="7.1"/>
	</g>
	<rect x="35.8" y="178.3" class="st1" width="4.2" height="1.4"/>
	<path class="st0" d="M39.4,178.6L39.4,178.6c0,0.8-0.6,1.4-1.4,1.4c-0.8,0-1.4-0.6-1.4-1.4l0,0H39.4z"/>
	<g>
		<rect x="35.8" y="178.3" class="st1" width="4.2" height="7.1"/>
	</g>
	<path class="st0" d="M36.6,190.1c0-0.8,0.6-1.4,1.4-1.4c0.8,0,1.4,0.6,1.4,1.4l0,0H36.6z"/>
	<g>
		<rect x="35.8" y="184" class="st1" width="4.2" height="7.1"/>
	</g>
	<rect x="35.8" y="189.6" class="st1" width="4.2" height="1.4"/>
	<path class="st0" d="M39.4,190.1L39.4,190.1c0,0.8-0.6,1.4-1.4,1.4c-0.8,0-1.4-0.6-1.4-1.4l0,0H39.4z"/>
	<g>
		<rect x="35.8" y="189.6" class="st1" width="4.2" height="7.1"/>
	</g>
	<path class="st0" d="M36.6,201.5c0-0.8,0.6-1.4,1.4-1.4c0.8,0,1.4,0.6,1.4,1.4l0,0H36.6z"/>
	<g>
		<rect x="35.8" y="195.3" class="st1" width="4.2" height="7.1"/>
	</g>
	<rect x="35.8" y="200.9" class="st1" width="4.2" height="1.4"/>
	<path class="st0" d="M39.4,201.5L39.4,201.5c0,0.8-0.6,1.4-1.4,1.4c-0.8,0-1.4-0.6-1.4-1.4l0,0H39.4z"/>
	<g>
		<rect x="35.8" y="200.9" class="st1" width="4.2" height="7.1"/>
	</g>
	<path class="st0" d="M36.6,213c0-0.8,0.6-1.4,1.4-1.4c0.8,0,1.4,0.6,1.4,1.4l0,0H36.6z"/>
	<g>
		<rect x="35.8" y="206.6" class="st1" width="4.2" height="7.1"/>
	</g>
	<rect x="35.8" y="212.3" class="st1" width="4.2" height="1.4"/>
	<path class="st0" d="M39.4,213L39.4,213c0,0.8-0.6,1.4-1.4,1.4c-0.8,0-1.4-0.6-1.4-1.4l0,0H39.4z"/>
	<g>
		<rect x="35.8" y="212.3" class="st1" width="4.2" height="7.1"/>
	</g>
	<path class="st0" d="M36.6,224.5c0-0.8,0.6-1.4,1.4-1.4c0.8,0,1.4,0.6,1.4,1.4l0,0H36.6z"/>
	<g>
		<rect x="35.8" y="217.9" class="st1" width="4.2" height="7.1"/>
	</g>
	<rect x="35.8" y="223.6" class="st1" width="4.2" height="1.4"/>
	<path class="st0" d="M39.4,224.5L39.4,224.5c0,0.8-0.6,1.4-1.4,1.4c-0.8,0-1.4-0.6-1.4-1.4l0,0H39.4z"/>
	<g>
		<rect x="35.8" y="223.6" class="st1" width="4.2" height="7.1"/>
	</g>
	<path class="st0" d="M36.6,235.9c0-0.8,0.6-1.4,1.4-1.4c0.8,0,1.4,0.6,1.4,1.4l0,0H36.6z"/>
	<g>
		<rect x="35.8" y="229.2" class="st1" width="4.2" height="7.1"/>
	</g>
	<rect x="35.8" y="234.9" class="st1" width="4.2" height="1.4"/>
	<path class="st0" d="M39.4,235.9L39.4,235.9c0,0.8-0.6,1.4-1.4,1.4c-0.8,0-1.4-0.6-1.4-1.4l0,0H39.4z"/>
	<g>
		<rect x="35.8" y="234.9" class="st1" width="4.2" height="7.1"/>
	</g>
	<path class="st0" d="M36.6,247.4c0-0.8,0.6-1.4,1.4-1.4c0.8,0,1.4,0.6,1.4,1.4l0,0H36.6z"/>
	<g>
		<rect x="35.8" y="240.6" class="st1" width="4.2" height="7.1"/>
	</g>
	<rect x="35.8" y="246.2" class="st1" width="4.2" height="1.4"/>
	<path class="st0" d="M39.4,247.4L39.4,247.4c0,0.8-0.6,1.4-1.4,1.4c-0.8,0-1.4-0.6-1.4-1.4l0,0H39.4z"/>
	<g>
		<rect x="35.8" y="246.2" class="st1" width="4.2" height="7.1"/>
	</g>
	<path class="st0" d="M36.6,258.9c0-0.8,0.6-1.4,1.4-1.4c0.8,0,1.4,0.6,1.4,1.4l0,0H36.6z"/>
	<g>
		<rect x="35.8" y="251.9" class="st1" width="4.2" height="7.1"/>
	</g>
	<rect x="35.8" y="257.5" class="st1" width="4.2" height="1.4"/>
	<path class="st0" d="M39.4,258.9L39.4,258.9c0,0.8-0.6,1.4-1.4,1.4c-0.8,0-1.4-0.6-1.4-1.4l0,0H39.4z"/>
	<g>
		<rect x="35.8" y="257.5" class="st1" width="4.2" height="7.1"/>
	</g>
	<path class="st0" d="M36.6,270.3c0-0.8,0.6-1.4,1.4-1.4c0.8,0,1.4,0.6,1.4,1.4l0,0H36.6z"/>
	<g>
		<rect x="35.8" y="264.6" class="st1" width="4.2" height="7.1"/>
	</g>
	<rect x="35.8" y="270.3" class="st1" width="4.2" height="1.4"/>
	<path class="st0" d="M39.4,270.3L39.4,270.3c0,0.8-0.6,1.4-1.4,1.4c-0.8,0-1.4-0.6-1.4-1.4l0,0H39.4z"/>
	<g>
		<rect x="35.8" y="270.3" class="st1" width="4.2" height="7.1"/>
	</g>
	<path class="st0" d="M36.6,281.8c0-0.8,0.6-1.4,1.4-1.4c0.8,0,1.4,0.6,1.4,1.4l0,0H36.6z"/>
	<g>
		<rect x="35.8" y="275.9" class="st1" width="4.2" height="7.1"/>
	</g>
	<rect x="35.8" y="281.6" class="st1" width="4.2" height="1.4"/>
	<path class="st0" d="M39.4,281.8L39.4,281.8c0,0.8-0.6,1.4-1.4,1.4c-0.8,0-1.4-0.6-1.4-1.4l0,0H39.4z"/>
	<g>
		<rect x="35.8" y="281.6" class="st1" width="4.2" height="7.1"/>
	</g>
	<path class="st0" d="M36.6,293.3L36.6,293.3c0-0.8,0.6-1.4,1.4-1.4c0.8,0,1.4,0.6,1.4,1.4l0,0H36.6z"/>
	<g>
		<rect x="35.8" y="287.3" class="st1" width="4.2" height="7.1"/>
	</g>
	<rect x="35.8" y="292.9" class="st1" width="4.2" height="1.4"/>
	<path class="st0" d="M39.4,293.3L39.4,293.3c0,0.8-0.6,1.4-1.4,1.4c-0.8,0-1.4-0.6-1.4-1.4l0,0H39.4z"/>
	<g>
		<rect x="35.8" y="292.9" class="st1" width="4.2" height="7.1"/>
	</g>
	<path class="st0" d="M48.5,6.6c0-0.8,0.6-1.4,1.4-1.4c0.8,0,1.4,0.6,1.4,1.4H48.5z"/>
	<g>
		<rect x="47.2" class="st1" width="4.2" height="7.1"/>
	</g>
	<rect x="47.2" y="5.7" class="st1" width="4.2" height="1.4"/>
	<path class="st0" d="M51.3,6.6c0,0.8-0.6,1.4-1.4,1.4c-0.8,0-1.4-0.6-1.4-1.4l0,0H51.3z"/>
	<g>
		<rect x="47.2" y="5.7" class="st1" width="4.2" height="7.1"/>
	</g>
	<path class="st0" d="M48.5,18.1c0-0.8,0.6-1.4,1.4-1.4c0.8,0,1.4,0.6,1.4,1.4l0,0H48.5z"/>
	<g>
		<rect x="47.2" y="11.3" class="st1" width="4.2" height="7.1"/>
	</g>
	<rect x="47.2" y="17" class="st1" width="4.2" height="1.4"/>
	<path class="st0" d="M51.3,18.1L51.3,18.1c0,0.8-0.6,1.4-1.4,1.4c-0.8,0-1.4-0.6-1.4-1.4l0,0H51.3z"/>
	<g>
		<rect x="47.2" y="17" class="st1" width="4.2" height="7.1"/>
	</g>
	<path class="st0" d="M48.5,29.5L48.5,29.5c0-0.8,0.6-1.4,1.4-1.4c0.8,0,1.4,0.6,1.4,1.4l0,0H48.5z"/>
	<g>
		<rect x="47.2" y="22.6" class="st1" width="4.2" height="7.1"/>
	</g>
	<rect x="47.2" y="28.3" class="st1" width="4.2" height="1.4"/>
	<path class="st0" d="M51.3,29.5L51.3,29.5c0,0.8-0.6,1.4-1.4,1.4c-0.8,0-1.4-0.6-1.4-1.4l0,0H51.3z"/>
	<g>
		<rect x="47.2" y="28.3" class="st1" width="4.2" height="7.1"/>
	</g>
	<path class="st0" d="M48.5,41c0-0.8,0.6-1.4,1.4-1.4c0.8,0,1.4,0.6,1.4,1.4l0,0H48.5z"/>
	<g>
		<rect x="47.2" y="34" class="st1" width="4.2" height="7.1"/>
	</g>
	<rect x="47.2" y="39.6" class="st1" width="4.2" height="1.4"/>
	<path class="st0" d="M51.3,41L51.3,41c0,0.8-0.6,1.4-1.4,1.4c-0.8,0-1.4-0.6-1.4-1.4l0,0H51.3z"/>
	<g>
		<rect x="47.2" y="39.6" class="st1" width="4.2" height="7.1"/>
	</g>
	<path class="st0" d="M48.5,52.5L48.5,52.5c0-0.8,0.6-1.4,1.4-1.4c0.8,0,1.4,0.6,1.4,1.4l0,0H48.5z"/>
	<g>
		<rect x="47.2" y="46.7" class="st1" width="4.2" height="7.1"/>
	</g>
	<rect x="47.2" y="52.4" class="st1" width="4.2" height="1.4"/>
	<path class="st0" d="M51.3,52.5L51.3,52.5c0,0.8-0.6,1.4-1.4,1.4c-0.8,0-1.4-0.6-1.4-1.4l0,0H51.3z"/>
	<g>
		<rect x="47.2" y="52.4" class="st1" width="4.2" height="7.1"/>
	</g>
	<path class="st0" d="M48.5,63.9c0-0.8,0.6-1.4,1.4-1.4c0.8,0,1.4,0.6,1.4,1.4l0,0H48.5z"/>
	<g>
		<rect x="47.2" y="58" class="st1" width="4.2" height="7.1"/>
	</g>
	<rect x="47.2" y="63.7" class="st1" width="4.2" height="1.4"/>
	<path class="st0" d="M51.3,63.9L51.3,63.9c0,0.8-0.6,1.4-1.4,1.4c-0.8,0-1.4-0.6-1.4-1.4l0,0H51.3z"/>
	<g>
		<rect x="47.2" y="63.7" class="st1" width="4.2" height="7.1"/>
	</g>
	<path class="st0" d="M48.5,75.4c0-0.8,0.6-1.4,1.4-1.4c0.8,0,1.4,0.6,1.4,1.4l0,0H48.5z"/>
	<g>
		<rect x="47.2" y="69.3" class="st1" width="4.2" height="7.1"/>
	</g>
	<rect x="47.2" y="75" class="st1" width="4.2" height="1.4"/>
	<path class="st0" d="M51.3,75.4L51.3,75.4c0,0.8-0.6,1.4-1.4,1.4c-0.8,0-1.4-0.6-1.4-1.4l0,0H51.3z"/>
	<g>
		<rect x="47.2" y="75" class="st1" width="4.2" height="7.1"/>
	</g>
	<path class="st0" d="M48.5,86.9c0-0.8,0.6-1.4,1.4-1.4c0.8,0,1.4,0.6,1.4,1.4l0,0H48.5z"/>
	<g>
		<rect x="47.2" y="80.7" class="st1" width="4.2" height="7.1"/>
	</g>
	<rect x="47.2" y="86.3" class="st1" width="4.2" height="1.4"/>
	<path class="st0" d="M51.3,86.9L51.3,86.9c0,0.8-0.6,1.4-1.4,1.4c-0.8,0-1.4-0.6-1.4-1.4l0,0H51.3z"/>
	<g>
		<rect x="47.2" y="86.3" class="st1" width="4.2" height="7.1"/>
	</g>
	<path class="st0" d="M48.5,98.3c0-0.8,0.6-1.4,1.4-1.4c0.8,0,1.4,0.6,1.4,1.4l0,0H48.5z"/>
	<g>
		<rect x="47.2" y="92" class="st1" width="4.2" height="7.1"/>
	</g>
	<rect x="47.2" y="97.6" class="st1" width="4.2" height="1.4"/>
	<path class="st0" d="M51.3,98.3L51.3,98.3c0,0.8-0.6,1.4-1.4,1.4c-0.8,0-1.4-0.6-1.4-1.4l0,0H51.3z"/>
	<g>
		<rect x="47.2" y="97.6" class="st1" width="4.2" height="7.1"/>
	</g>
	<path class="st0" d="M48.5,109.8L48.5,109.8c0-0.8,0.6-1.4,1.4-1.4c0.8,0,1.4,0.6,1.4,1.4l0,0H48.5z"/>
	<g>
		<rect x="47.2" y="103.3" class="st1" width="4.2" height="7.1"/>
	</g>
	<rect x="47.2" y="109" class="st1" width="4.2" height="1.4"/>
	<path class="st0" d="M51.3,109.8L51.3,109.8c0,0.8-0.6,1.4-1.4,1.4c-0.8,0-1.4-0.6-1.4-1.4l0,0H51.3z"/>
	<g>
		<rect x="47.2" y="109" class="st1" width="4.2" height="7.1"/>
	</g>
	<path class="st0" d="M48.5,121.3c0-0.8,0.6-1.4,1.4-1.4c0.8,0,1.4,0.6,1.4,1.4l0,0H48.5z"/>
	<g>
		<rect x="47.2" y="114.6" class="st1" width="4.2" height="7.1"/>
	</g>
	<rect x="47.2" y="120.3" class="st1" width="4.2" height="1.4"/>
	<path class="st0" d="M51.3,121.3L51.3,121.3c0,0.8-0.6,1.4-1.4,1.4c-0.8,0-1.4-0.6-1.4-1.4l0,0H51.3z"/>
	<g>
		<rect x="47.2" y="120.3" class="st1" width="4.2" height="7.1"/>
	</g>
	<path class="st0" d="M48.5,132.7L48.5,132.7c0-0.8,0.6-1.4,1.4-1.4c0.8,0,1.4,0.6,1.4,1.4l0,0H48.5z"/>
	<g>
		<rect x="47.2" y="125.9" class="st1" width="4.2" height="7.1"/>
	</g>
	<rect x="47.2" y="131.6" class="st1" width="4.2" height="1.4"/>
	<path class="st0" d="M51.3,132.7L51.3,132.7c0,0.8-0.6,1.4-1.4,1.4c-0.8,0-1.4-0.6-1.4-1.4l0,0H51.3z"/>
	<g>
		<rect x="47.2" y="131.6" class="st1" width="4.2" height="7.1"/>
	</g>
	<path class="st0" d="M48.5,144.2c0-0.8,0.6-1.4,1.4-1.4c0.8,0,1.4,0.6,1.4,1.4l0,0H48.5z"/>
	<g>
		<rect x="47.2" y="137.3" class="st1" width="4.2" height="7.1"/>
	</g>
	<rect x="47.2" y="142.9" class="st1" width="4.2" height="1.4"/>
	<path class="st0" d="M51.3,144.2L51.3,144.2c0,0.8-0.6,1.4-1.4,1.4c-0.8,0-1.4-0.6-1.4-1.4l0,0H51.3z"/>
	<g>
		<rect x="47.2" y="142.9" class="st1" width="4.2" height="7.1"/>
	</g>
	<path class="st0" d="M48.5,155.7c0-0.8,0.6-1.4,1.4-1.4c0.8,0,1.4,0.6,1.4,1.4l0,0H48.5z"/>
	<g>
		<rect x="47.2" y="150" class="st1" width="4.2" height="7.1"/>
	</g>
	<rect x="47.2" y="155.7" class="st1" width="4.2" height="1.4"/>
	<path class="st0" d="M51.3,155.7L51.3,155.7c0,0.8-0.6,1.4-1.4,1.4c-0.8,0-1.4-0.6-1.4-1.4l0,0H51.3z"/>
	<g>
		<rect x="47.2" y="155.7" class="st1" width="4.2" height="7.1"/>
	</g>
	<path class="st0" d="M48.5,167.1c0-0.8,0.6-1.4,1.4-1.4c0.8,0,1.4,0.6,1.4,1.4l0,0H48.5z"/>
	<g>
		<rect x="47.2" y="161.3" class="st1" width="4.2" height="7.1"/>
	</g>
	<rect x="47.2" y="167" class="st1" width="4.2" height="1.4"/>
	<path class="st0" d="M51.3,167.1L51.3,167.1c0,0.8-0.6,1.4-1.4,1.4c-0.8,0-1.4-0.6-1.4-1.4l0,0H51.3z"/>
	<g>
		<rect x="47.2" y="167" class="st1" width="4.2" height="7.1"/>
	</g>
	<path class="st0" d="M48.5,178.6c0-0.8,0.6-1.4,1.4-1.4c0.8,0,1.4,0.6,1.4,1.4l0,0H48.5z"/>
	<g>
		<rect x="47.2" y="172.6" class="st1" width="4.2" height="7.1"/>
	</g>
	<rect x="47.2" y="178.3" class="st1" width="4.2" height="1.4"/>
	<path class="st0" d="M51.3,178.6L51.3,178.6c0,0.8-0.6,1.4-1.4,1.4c-0.8,0-1.4-0.6-1.4-1.4l0,0H51.3z"/>
	<g>
		<rect x="47.2" y="178.3" class="st1" width="4.2" height="7.1"/>
	</g>
	<path class="st0" d="M48.5,190.1c0-0.8,0.6-1.4,1.4-1.4c0.8,0,1.4,0.6,1.4,1.4l0,0H48.5z"/>
	<g>
		<rect x="47.2" y="184" class="st1" width="4.2" height="7.1"/>
	</g>
	<rect x="47.2" y="189.6" class="st1" width="4.2" height="1.4"/>
	<path class="st0" d="M51.3,190.1L51.3,190.1c0,0.8-0.6,1.4-1.4,1.4c-0.8,0-1.4-0.6-1.4-1.4l0,0H51.3z"/>
	<g>
		<rect x="47.2" y="189.6" class="st1" width="4.2" height="7.1"/>
	</g>
	<path class="st0" d="M48.5,201.5c0-0.8,0.6-1.4,1.4-1.4c0.8,0,1.4,0.6,1.4,1.4l0,0H48.5z"/>
	<g>
		<rect x="47.2" y="195.3" class="st1" width="4.2" height="7.1"/>
	</g>
	<rect x="47.2" y="200.9" class="st1" width="4.2" height="1.4"/>
	<path class="st0" d="M51.3,201.5L51.3,201.5c0,0.8-0.6,1.4-1.4,1.4c-0.8,0-1.4-0.6-1.4-1.4l0,0H51.3z"/>
	<g>
		<rect x="47.2" y="200.9" class="st1" width="4.2" height="7.1"/>
	</g>
	<path class="st0" d="M48.5,213c0-0.8,0.6-1.4,1.4-1.4c0.8,0,1.4,0.6,1.4,1.4l0,0H48.5z"/>
	<g>
		<rect x="47.2" y="206.6" class="st1" width="4.2" height="7.1"/>
	</g>
	<rect x="47.2" y="212.3" class="st1" width="4.2" height="1.4"/>
	<path class="st0" d="M51.3,213L51.3,213c0,0.8-0.6,1.4-1.4,1.4c-0.8,0-1.4-0.6-1.4-1.4l0,0H51.3z"/>
	<g>
		<rect x="47.2" y="212.3" class="st1" width="4.2" height="7.1"/>
	</g>
	<path class="st0" d="M48.5,224.5c0-0.8,0.6-1.4,1.4-1.4c0.8,0,1.4,0.6,1.4,1.4l0,0H48.5z"/>
	<g>
		<rect x="47.2" y="217.9" class="st1" width="4.2" height="7.1"/>
	</g>
	<rect x="47.2" y="223.6" class="st1" width="4.2" height="1.4"/>
	<path class="st0" d="M51.3,224.5L51.3,224.5c0,0.8-0.6,1.4-1.4,1.4c-0.8,0-1.4-0.6-1.4-1.4l0,0H51.3z"/>
	<g>
		<rect x="47.2" y="223.6" class="st1" width="4.2" height="7.1"/>
	</g>
	<path class="st0" d="M48.5,235.9c0-0.8,0.6-1.4,1.4-1.4c0.8,0,1.4,0.6,1.4,1.4l0,0H48.5z"/>
	<g>
		<rect x="47.2" y="229.2" class="st1" width="4.2" height="7.1"/>
	</g>
	<rect x="47.2" y="234.9" class="st1" width="4.2" height="1.4"/>
	<path class="st0" d="M51.3,235.9L51.3,235.9c0,0.8-0.6,1.4-1.4,1.4c-0.8,0-1.4-0.6-1.4-1.4l0,0H51.3z"/>
	<g>
		<rect x="47.2" y="234.9" class="st1" width="4.2" height="7.1"/>
	</g>
	<path class="st0" d="M48.5,247.4c0-0.8,0.6-1.4,1.4-1.4c0.8,0,1.4,0.6,1.4,1.4l0,0H48.5z"/>
	<g>
		<rect x="47.2" y="240.6" class="st1" width="4.2" height="7.1"/>
	</g>
	<rect x="47.2" y="246.2" class="st1" width="4.2" height="1.4"/>
	<path class="st0" d="M51.3,247.4L51.3,247.4c0,0.8-0.6,1.4-1.4,1.4c-0.8,0-1.4-0.6-1.4-1.4l0,0H51.3z"/>
	<g>
		<rect x="47.2" y="246.2" class="st1" width="4.2" height="7.1"/>
	</g>
	<path class="st0" d="M48.5,258.9c0-0.8,0.6-1.4,1.4-1.4c0.8,0,1.4,0.6,1.4,1.4l0,0H48.5z"/>
	<g>
		<rect x="47.2" y="251.9" class="st1" width="4.2" height="7.1"/>
	</g>
	<rect x="47.2" y="257.5" class="st1" width="4.2" height="1.4"/>
	<path class="st0" d="M51.3,258.9L51.3,258.9c0,0.8-0.6,1.4-1.4,1.4c-0.8,0-1.4-0.6-1.4-1.4l0,0H51.3z"/>
	<g>
		<rect x="47.2" y="257.5" class="st1" width="4.2" height="7.1"/>
	</g>
	<path class="st0" d="M48.5,270.3c0-0.8,0.6-1.4,1.4-1.4c0.8,0,1.4,0.6,1.4,1.4l0,0H48.5z"/>
	<g>
		<rect x="47.2" y="264.6" class="st1" width="4.2" height="7.1"/>
	</g>
	<rect x="47.2" y="270.3" class="st1" width="4.2" height="1.4"/>
	<path class="st0" d="M51.3,270.3L51.3,270.3c0,0.8-0.6,1.4-1.4,1.4c-0.8,0-1.4-0.6-1.4-1.4l0,0H51.3z"/>
	<g>
		<rect x="47.2" y="270.3" class="st1" width="4.2" height="7.1"/>
	</g>
	<path class="st0" d="M48.5,281.8c0-0.8,0.6-1.4,1.4-1.4c0.8,0,1.4,0.6,1.4,1.4l0,0H48.5z"/>
	<g>
		<rect x="47.2" y="275.9" class="st1" width="4.2" height="7.1"/>
	</g>
	<rect x="47.2" y="281.6" class="st1" width="4.2" height="1.4"/>
	<path class="st0" d="M51.3,281.8L51.3,281.8c0,0.8-0.6,1.4-1.4,1.4c-0.8,0-1.4-0.6-1.4-1.4l0,0H51.3z"/>
	<g>
		<rect x="47.2" y="281.6" class="st1" width="4.2" height="7.1"/>
	</g>
	<path class="st0" d="M48.5,293.3L48.5,293.3c0-0.8,0.6-1.4,1.4-1.4c0.8,0,1.4,0.6,1.4,1.4l0,0H48.5z"/>
	<g>
		<rect x="47.2" y="287.3" class="st1" width="4.2" height="7.1"/>
	</g>
	<rect x="47.2" y="292.9" class="st1" width="4.2" height="1.4"/>
	<path class="st0" d="M51.3,293.3L51.3,293.3c0,0.8-0.6,1.4-1.4,1.4c-0.8,0-1.4-0.6-1.4-1.4l0,0H51.3z"/>
	<g>
		<rect x="47.2" y="292.9" class="st1" width="4.2" height="7.1"/>
	</g>
	<path class="st0" d="M60.3,6.6c0-0.8,0.6-1.4,1.4-1.4s1.4,0.6,1.4,1.4H60.3z"/>
	<g>
		<rect x="59.9" class="st1" width="4.2" height="7.1"/>
	</g>
	<rect x="59.9" y="5.7" class="st1" width="4.2" height="1.4"/>
	<path class="st0" d="M63.1,6.6c0,0.8-0.6,1.4-1.4,1.4s-1.4-0.6-1.4-1.4l0,0H63.1z"/>
	<g>
		<rect x="59.9" y="5.7" class="st1" width="4.2" height="7.1"/>
	</g>
	<path class="st0" d="M60.3,18.1c0-0.8,0.6-1.4,1.4-1.4s1.4,0.6,1.4,1.4l0,0H60.3z"/>
	<g>
		<rect x="59.9" y="11.3" class="st1" width="4.2" height="7.1"/>
	</g>
	<rect x="59.9" y="17" class="st1" width="4.2" height="1.4"/>
	<path class="st0" d="M63.1,18.1L63.1,18.1c0,0.8-0.6,1.4-1.4,1.4s-1.4-0.6-1.4-1.4l0,0H63.1z"/>
	<g>
		<rect x="59.9" y="17" class="st1" width="4.2" height="7.1"/>
	</g>
	<path class="st0" d="M60.3,29.5L60.3,29.5c0-0.8,0.6-1.4,1.4-1.4s1.4,0.6,1.4,1.4l0,0H60.3z"/>
	<g>
		<rect x="59.9" y="22.6" class="st1" width="4.2" height="7.1"/>
	</g>
	<rect x="59.9" y="28.3" class="st1" width="4.2" height="1.4"/>
	<path class="st0" d="M63.1,29.5L63.1,29.5c0,0.8-0.6,1.4-1.4,1.4s-1.4-0.6-1.4-1.4l0,0H63.1z"/>
	<g>
		<rect x="59.9" y="28.3" class="st1" width="4.2" height="7.1"/>
	</g>
	<path class="st0" d="M60.3,41c0-0.8,0.6-1.4,1.4-1.4s1.4,0.6,1.4,1.4l0,0H60.3z"/>
	<g>
		<rect x="59.9" y="34" class="st1" width="4.2" height="7.1"/>
	</g>
	<rect x="59.9" y="39.6" class="st1" width="4.2" height="1.4"/>
	<path class="st0" d="M63.1,41L63.1,41c0,0.8-0.6,1.4-1.4,1.4s-1.4-0.6-1.4-1.4l0,0H63.1z"/>
	<g>
		<rect x="59.9" y="39.6" class="st1" width="4.2" height="7.1"/>
	</g>
	<path class="st0" d="M60.3,52.5L60.3,52.5c0-0.8,0.6-1.4,1.4-1.4s1.4,0.6,1.4,1.4l0,0H60.3z"/>
	<g>
		<rect x="59.9" y="46.7" class="st1" width="4.2" height="7.1"/>
	</g>
	<rect x="59.9" y="52.4" class="st1" width="4.2" height="1.4"/>
	<path class="st0" d="M63.1,52.5L63.1,52.5c0,0.8-0.6,1.4-1.4,1.4s-1.4-0.6-1.4-1.4l0,0H63.1z"/>
	<g>
		<rect x="59.9" y="52.4" class="st1" width="4.2" height="7.1"/>
	</g>
	<path class="st0" d="M60.3,63.9c0-0.8,0.6-1.4,1.4-1.4s1.4,0.6,1.4,1.4l0,0H60.3z"/>
	<g>
		<rect x="59.9" y="58" class="st1" width="4.2" height="7.1"/>
	</g>
	<rect x="59.9" y="63.7" class="st1" width="4.2" height="1.4"/>
	<path class="st0" d="M63.1,63.9L63.1,63.9c0,0.8-0.6,1.4-1.4,1.4s-1.4-0.6-1.4-1.4l0,0H63.1z"/>
	<g>
		<rect x="59.9" y="63.7" class="st1" width="4.2" height="7.1"/>
	</g>
	<path class="st0" d="M60.3,75.4c0-0.8,0.6-1.4,1.4-1.4s1.4,0.6,1.4,1.4l0,0H60.3z"/>
	<g>
		<rect x="59.9" y="69.3" class="st1" width="4.2" height="7.1"/>
	</g>
	<rect x="59.9" y="75" class="st1" width="4.2" height="1.4"/>
	<path class="st0" d="M63.1,75.4L63.1,75.4c0,0.8-0.6,1.4-1.4,1.4s-1.4-0.6-1.4-1.4l0,0H63.1z"/>
	<g>
		<rect x="59.9" y="75" class="st1" width="4.2" height="7.1"/>
	</g>
	<path class="st0" d="M60.3,86.9c0-0.8,0.6-1.4,1.4-1.4s1.4,0.6,1.4,1.4l0,0H60.3z"/>
	<g>
		<rect x="59.9" y="80.7" class="st1" width="4.2" height="7.1"/>
	</g>
	<rect x="59.9" y="86.3" class="st1" width="4.2" height="1.4"/>
	<path class="st0" d="M63.1,86.9L63.1,86.9c0,0.8-0.6,1.4-1.4,1.4s-1.4-0.6-1.4-1.4l0,0H63.1z"/>
	<g>
		<rect x="59.9" y="86.3" class="st1" width="4.2" height="7.1"/>
	</g>
	<path class="st0" d="M60.3,98.3c0-0.8,0.6-1.4,1.4-1.4s1.4,0.6,1.4,1.4l0,0H60.3z"/>
	<g>
		<rect x="59.9" y="92" class="st1" width="4.2" height="7.1"/>
	</g>
	<rect x="59.9" y="97.6" class="st1" width="4.2" height="1.4"/>
	<path class="st0" d="M63.1,98.3L63.1,98.3c0,0.8-0.6,1.4-1.4,1.4s-1.4-0.6-1.4-1.4l0,0H63.1z"/>
	<g>
		<rect x="59.9" y="97.6" class="st1" width="4.2" height="7.1"/>
	</g>
	<path class="st0" d="M60.3,109.8L60.3,109.8c0-0.8,0.6-1.4,1.4-1.4s1.4,0.6,1.4,1.4l0,0H60.3z"/>
	<g>
		<rect x="59.9" y="103.3" class="st1" width="4.2" height="7.1"/>
	</g>
	<rect x="59.9" y="109" class="st1" width="4.2" height="1.4"/>
	<path class="st0" d="M63.1,109.8L63.1,109.8c0,0.8-0.6,1.4-1.4,1.4s-1.4-0.6-1.4-1.4l0,0H63.1z"/>
	<g>
		<rect x="59.9" y="109" class="st1" width="4.2" height="7.1"/>
	</g>
	<path class="st0" d="M60.3,121.3c0-0.8,0.6-1.4,1.4-1.4s1.4,0.6,1.4,1.4l0,0H60.3z"/>
	<g>
		<rect x="59.9" y="114.6" class="st1" width="4.2" height="7.1"/>
	</g>
	<rect x="59.9" y="120.3" class="st1" width="4.2" height="1.4"/>
	<path class="st0" d="M63.1,121.3L63.1,121.3c0,0.8-0.6,1.4-1.4,1.4s-1.4-0.6-1.4-1.4l0,0H63.1z"/>
	<g>
		<rect x="59.9" y="120.3" class="st1" width="4.2" height="7.1"/>
	</g>
	<path class="st0" d="M60.3,132.7L60.3,132.7c0-0.8,0.6-1.4,1.4-1.4s1.4,0.6,1.4,1.4l0,0H60.3z"/>
	<g>
		<rect x="59.9" y="125.9" class="st1" width="4.2" height="7.1"/>
	</g>
	<rect x="59.9" y="131.6" class="st1" width="4.2" height="1.4"/>
	<path class="st0" d="M63.1,132.7L63.1,132.7c0,0.8-0.6,1.4-1.4,1.4s-1.4-0.6-1.4-1.4l0,0H63.1z"/>
	<g>
		<rect x="59.9" y="131.6" class="st1" width="4.2" height="7.1"/>
	</g>
	<path class="st0" d="M60.3,144.2c0-0.8,0.6-1.4,1.4-1.4s1.4,0.6,1.4,1.4l0,0H60.3z"/>
	<g>
		<rect x="59.9" y="137.3" class="st1" width="4.2" height="7.1"/>
	</g>
	<rect x="59.9" y="142.9" class="st1" width="4.2" height="1.4"/>
	<path class="st0" d="M63.1,144.2L63.1,144.2c0,0.8-0.6,1.4-1.4,1.4s-1.4-0.6-1.4-1.4l0,0H63.1z"/>
	<g>
		<rect x="59.9" y="142.9" class="st1" width="4.2" height="7.1"/>
	</g>
	<path class="st0" d="M60.3,155.7c0-0.8,0.6-1.4,1.4-1.4s1.4,0.6,1.4,1.4l0,0H60.3z"/>
	<g>
		<rect x="59.9" y="150" class="st1" width="4.2" height="7.1"/>
	</g>
	<rect x="59.9" y="155.7" class="st1" width="4.2" height="1.4"/>
	<path class="st0" d="M63.1,155.7L63.1,155.7c0,0.8-0.6,1.4-1.4,1.4s-1.4-0.6-1.4-1.4l0,0H63.1z"/>
	<g>
		<rect x="59.9" y="155.7" class="st1" width="4.2" height="7.1"/>
	</g>
	<path class="st0" d="M60.3,167.1c0-0.8,0.6-1.4,1.4-1.4s1.4,0.6,1.4,1.4l0,0H60.3z"/>
	<g>
		<rect x="59.9" y="161.3" class="st1" width="4.2" height="7.1"/>
	</g>
	<rect x="59.9" y="167" class="st1" width="4.2" height="1.4"/>
	<path class="st0" d="M63.1,167.1L63.1,167.1c0,0.8-0.6,1.4-1.4,1.4s-1.4-0.6-1.4-1.4l0,0H63.1z"/>
	<g>
		<rect x="59.9" y="167" class="st1" width="4.2" height="7.1"/>
	</g>
	<path class="st0" d="M60.3,178.6c0-0.8,0.6-1.4,1.4-1.4s1.4,0.6,1.4,1.4l0,0H60.3z"/>
	<g>
		<rect x="59.9" y="172.6" class="st1" width="4.2" height="7.1"/>
	</g>
	<rect x="59.9" y="178.3" class="st1" width="4.2" height="1.4"/>
	<path class="st0" d="M63.1,178.6L63.1,178.6c0,0.8-0.6,1.4-1.4,1.4s-1.4-0.6-1.4-1.4l0,0H63.1z"/>
	<g>
		<rect x="59.9" y="178.3" class="st1" width="4.2" height="7.1"/>
	</g>
	<path class="st0" d="M60.3,190.1c0-0.8,0.6-1.4,1.4-1.4s1.4,0.6,1.4,1.4l0,0H60.3z"/>
	<g>
		<rect x="59.9" y="184" class="st1" width="4.2" height="7.1"/>
	</g>
	<rect x="59.9" y="189.6" class="st1" width="4.2" height="1.4"/>
	<path class="st0" d="M63.1,190.1L63.1,190.1c0,0.8-0.6,1.4-1.4,1.4s-1.4-0.6-1.4-1.4l0,0H63.1z"/>
	<g>
		<rect x="59.9" y="189.6" class="st1" width="4.2" height="7.1"/>
	</g>
	<path class="st0" d="M60.3,201.5c0-0.8,0.6-1.4,1.4-1.4s1.4,0.6,1.4,1.4l0,0H60.3z"/>
	<g>
		<rect x="59.9" y="195.3" class="st1" width="4.2" height="7.1"/>
	</g>
	<rect x="59.9" y="200.9" class="st1" width="4.2" height="1.4"/>
	<path class="st0" d="M63.1,201.5L63.1,201.5c0,0.8-0.6,1.4-1.4,1.4s-1.4-0.6-1.4-1.4l0,0H63.1z"/>
	<g>
		<rect x="59.9" y="200.9" class="st1" width="4.2" height="7.1"/>
	</g>
	<path class="st0" d="M60.3,213c0-0.8,0.6-1.4,1.4-1.4s1.4,0.6,1.4,1.4l0,0H60.3z"/>
	<g>
		<rect x="59.9" y="206.6" class="st1" width="4.2" height="7.1"/>
	</g>
	<rect x="59.9" y="212.3" class="st1" width="4.2" height="1.4"/>
	<path class="st0" d="M63.1,213L63.1,213c0,0.8-0.6,1.4-1.4,1.4s-1.4-0.6-1.4-1.4l0,0H63.1z"/>
	<g>
		<rect x="59.9" y="212.3" class="st1" width="4.2" height="7.1"/>
	</g>
	<path class="st0" d="M60.3,224.5c0-0.8,0.6-1.4,1.4-1.4s1.4,0.6,1.4,1.4l0,0H60.3z"/>
	<g>
		<rect x="59.9" y="217.9" class="st1" width="4.2" height="7.1"/>
	</g>
	<rect x="59.9" y="223.6" class="st1" width="4.2" height="1.4"/>
	<path class="st0" d="M63.1,224.5L63.1,224.5c0,0.8-0.6,1.4-1.4,1.4s-1.4-0.6-1.4-1.4l0,0H63.1z"/>
	<g>
		<rect x="59.9" y="223.6" class="st1" width="4.2" height="7.1"/>
	</g>
	<path class="st0" d="M60.3,235.9c0-0.8,0.6-1.4,1.4-1.4s1.4,0.6,1.4,1.4l0,0H60.3z"/>
	<g>
		<rect x="59.9" y="229.2" class="st1" width="4.2" height="7.1"/>
	</g>
	<rect x="59.9" y="234.9" class="st1" width="4.2" height="1.4"/>
	<path class="st0" d="M63.1,235.9L63.1,235.9c0,0.8-0.6,1.4-1.4,1.4s-1.4-0.6-1.4-1.4l0,0H63.1z"/>
	<g>
		<rect x="59.9" y="234.9" class="st1" width="4.2" height="7.1"/>
	</g>
	<path class="st0" d="M60.3,247.4c0-0.8,0.6-1.4,1.4-1.4s1.4,0.6,1.4,1.4l0,0H60.3z"/>
	<g>
		<rect x="59.9" y="240.6" class="st1" width="4.2" height="7.1"/>
	</g>
	<rect x="59.9" y="246.2" class="st1" width="4.2" height="1.4"/>
	<path class="st0" d="M63.1,247.4L63.1,247.4c0,0.8-0.6,1.4-1.4,1.4s-1.4-0.6-1.4-1.4l0,0H63.1z"/>
	<g>
		<rect x="59.9" y="246.2" class="st1" width="4.2" height="7.1"/>
	</g>
	<path class="st0" d="M60.3,258.9c0-0.8,0.6-1.4,1.4-1.4s1.4,0.6,1.4,1.4l0,0H60.3z"/>
	<g>
		<rect x="59.9" y="251.9" class="st1" width="4.2" height="7.1"/>
	</g>
	<rect x="59.9" y="257.5" class="st1" width="4.2" height="1.4"/>
	<path class="st0" d="M63.1,258.9L63.1,258.9c0,0.8-0.6,1.4-1.4,1.4s-1.4-0.6-1.4-1.4l0,0H63.1z"/>
	<g>
		<rect x="59.9" y="257.5" class="st1" width="4.2" height="7.1"/>
	</g>
	<path class="st0" d="M60.3,270.3c0-0.8,0.6-1.4,1.4-1.4s1.4,0.6,1.4,1.4l0,0H60.3z"/>
	<g>
		<rect x="59.9" y="264.6" class="st1" width="4.2" height="7.1"/>
	</g>
	<rect x="59.9" y="270.3" class="st1" width="4.2" height="1.4"/>
	<path class="st0" d="M63.1,270.3L63.1,270.3c0,0.8-0.6,1.4-1.4,1.4s-1.4-0.6-1.4-1.4l0,0H63.1z"/>
	<g>
		<rect x="59.9" y="270.3" class="st1" width="4.2" height="7.1"/>
	</g>
	<path class="st0" d="M60.3,281.8c0-0.8,0.6-1.4,1.4-1.4s1.4,0.6,1.4,1.4l0,0H60.3z"/>
	<g>
		<rect x="59.9" y="275.9" class="st1" width="4.2" height="7.1"/>
	</g>
	<rect x="59.9" y="281.6" class="st1" width="4.2" height="1.4"/>
	<path class="st0" d="M63.1,281.8L63.1,281.8c0,0.8-0.6,1.4-1.4,1.4s-1.4-0.6-1.4-1.4l0,0H63.1z"/>
	<g>
		<rect x="59.9" y="281.6" class="st1" width="4.2" height="7.1"/>
	</g>
	<path class="st0" d="M60.3,293.3L60.3,293.3c0-0.8,0.6-1.4,1.4-1.4s1.4,0.6,1.4,1.4l0,0H60.3z"/>
	<g>
		<rect x="59.9" y="287.3" class="st1" width="4.2" height="7.1"/>
	</g>
	<rect x="59.9" y="292.9" class="st1" width="4.2" height="1.4"/>
	<path class="st0" d="M63.1,293.3L63.1,293.3c0,0.8-0.6,1.4-1.4,1.4s-1.4-0.6-1.4-1.4l0,0H63.1z"/>
	<g>
		<rect x="59.9" y="292.9" class="st1" width="4.2" height="7.1"/>
	</g>
	<path class="st0" d="M72.2,6.6c0-0.8,0.6-1.4,1.4-1.4S75,5.8,75,6.6H72.2z"/>
	<g>
		<rect x="71.2" class="st1" width="4.2" height="7.1"/>
	</g>
	<rect x="71.2" y="5.7" class="st1" width="4.2" height="1.4"/>
	<path class="st0" d="M75,6.6C75,7.4,74.4,8,73.6,8s-1.4-0.6-1.4-1.4l0,0H75z"/>
	<g>
		<rect x="71.2" y="5.7" class="st1" width="4.2" height="7.1"/>
	</g>
	<path class="st0" d="M72.2,18.1c0-0.8,0.6-1.4,1.4-1.4s1.4,0.6,1.4,1.4l0,0H72.2z"/>
	<g>
		<rect x="71.2" y="11.3" class="st1" width="4.2" height="7.1"/>
	</g>
	<rect x="71.2" y="17" class="st1" width="4.2" height="1.4"/>
	<path class="st0" d="M75,18.1L75,18.1c0,0.8-0.6,1.4-1.4,1.4s-1.4-0.6-1.4-1.4l0,0H75z"/>
	<g>
		<rect x="71.2" y="17" class="st1" width="4.2" height="7.1"/>
	</g>
	<path class="st0" d="M72.2,29.5L72.2,29.5c0-0.8,0.6-1.4,1.4-1.4s1.4,0.6,1.4,1.4l0,0H72.2z"/>
	<g>
		<rect x="71.2" y="22.6" class="st1" width="4.2" height="7.1"/>
	</g>
	<rect x="71.2" y="28.3" class="st1" width="4.2" height="1.4"/>
	<path class="st0" d="M75,29.5L75,29.5c0,0.8-0.6,1.4-1.4,1.4s-1.4-0.6-1.4-1.4l0,0H75z"/>
	<g>
		<rect x="71.2" y="28.3" class="st1" width="4.2" height="7.1"/>
	</g>
	<path class="st0" d="M72.2,41c0-0.8,0.6-1.4,1.4-1.4S75,40.2,75,41l0,0H72.2z"/>
	<g>
		<rect x="71.2" y="34" class="st1" width="4.2" height="7.1"/>
	</g>
	<rect x="71.2" y="39.6" class="st1" width="4.2" height="1.4"/>
	<path class="st0" d="M75,41L75,41c0,0.8-0.6,1.4-1.4,1.4s-1.4-0.6-1.4-1.4l0,0H75z"/>
	<g>
		<rect x="71.2" y="39.6" class="st1" width="4.2" height="7.1"/>
	</g>
	<path class="st0" d="M72.2,52.5L72.2,52.5c0-0.8,0.6-1.4,1.4-1.4s1.4,0.6,1.4,1.4l0,0H72.2z"/>
	<g>
		<rect x="71.2" y="46.7" class="st1" width="4.2" height="7.1"/>
	</g>
	<rect x="71.2" y="52.4" class="st1" width="4.2" height="1.4"/>
	<path class="st0" d="M75,52.5L75,52.5c0,0.8-0.6,1.4-1.4,1.4s-1.4-0.6-1.4-1.4l0,0H75z"/>
	<g>
		<rect x="71.2" y="52.4" class="st1" width="4.2" height="7.1"/>
	</g>
	<path class="st0" d="M72.2,63.9c0-0.8,0.6-1.4,1.4-1.4s1.4,0.6,1.4,1.4l0,0H72.2z"/>
	<g>
		<rect x="71.2" y="58" class="st1" width="4.2" height="7.1"/>
	</g>
	<rect x="71.2" y="63.7" class="st1" width="4.2" height="1.4"/>
	<path class="st0" d="M75,63.9L75,63.9c0,0.8-0.6,1.4-1.4,1.4s-1.4-0.6-1.4-1.4l0,0H75z"/>
	<g>
		<rect x="71.2" y="63.7" class="st1" width="4.2" height="7.1"/>
	</g>
	<path class="st0" d="M72.2,75.4c0-0.8,0.6-1.4,1.4-1.4s1.4,0.6,1.4,1.4l0,0H72.2z"/>
	<g>
		<rect x="71.2" y="69.3" class="st1" width="4.2" height="7.1"/>
	</g>
	<rect x="71.2" y="75" class="st1" width="4.2" height="1.4"/>
	<path class="st0" d="M75,75.4L75,75.4c0,0.8-0.6,1.4-1.4,1.4s-1.4-0.6-1.4-1.4l0,0H75z"/>
	<g>
		<rect x="71.2" y="75" class="st1" width="4.2" height="7.1"/>
	</g>
	<path class="st0" d="M72.2,86.9c0-0.8,0.6-1.4,1.4-1.4s1.4,0.6,1.4,1.4l0,0H72.2z"/>
	<g>
		<rect x="71.2" y="80.7" class="st1" width="4.2" height="7.1"/>
	</g>
	<rect x="71.2" y="86.3" class="st1" width="4.2" height="1.4"/>
	<path class="st0" d="M75,86.9L75,86.9c0,0.8-0.6,1.4-1.4,1.4s-1.4-0.6-1.4-1.4l0,0H75z"/>
	<g>
		<rect x="71.2" y="86.3" class="st1" width="4.2" height="7.1"/>
	</g>
	<path class="st0" d="M72.2,98.3c0-0.8,0.6-1.4,1.4-1.4s1.4,0.6,1.4,1.4l0,0H72.2z"/>
	<g>
		<rect x="71.2" y="92" class="st1" width="4.2" height="7.1"/>
	</g>
	<rect x="71.2" y="97.6" class="st1" width="4.2" height="1.4"/>
	<path class="st0" d="M75,98.3L75,98.3c0,0.8-0.6,1.4-1.4,1.4s-1.4-0.6-1.4-1.4l0,0H75z"/>
	<g>
		<rect x="71.2" y="97.6" class="st1" width="4.2" height="7.1"/>
	</g>
	<path class="st0" d="M72.2,109.8L72.2,109.8c0-0.8,0.6-1.4,1.4-1.4s1.4,0.6,1.4,1.4l0,0H72.2z"/>
	<g>
		<rect x="71.2" y="103.3" class="st1" width="4.2" height="7.1"/>
	</g>
	<rect x="71.2" y="109" class="st1" width="4.2" height="1.4"/>
	<path class="st0" d="M75,109.8L75,109.8c0,0.8-0.6,1.4-1.4,1.4s-1.4-0.6-1.4-1.4l0,0H75z"/>
	<g>
		<rect x="71.2" y="109" class="st1" width="4.2" height="7.1"/>
	</g>
	<path class="st0" d="M72.2,121.3c0-0.8,0.6-1.4,1.4-1.4s1.4,0.6,1.4,1.4l0,0H72.2z"/>
	<g>
		<rect x="71.2" y="114.6" class="st1" width="4.2" height="7.1"/>
	</g>
	<rect x="71.2" y="120.3" class="st1" width="4.2" height="1.4"/>
	<path class="st0" d="M75,121.3L75,121.3c0,0.8-0.6,1.4-1.4,1.4s-1.4-0.6-1.4-1.4l0,0H75z"/>
	<g>
		<rect x="71.2" y="120.3" class="st1" width="4.2" height="7.1"/>
	</g>
	<path class="st0" d="M72.2,132.7L72.2,132.7c0-0.8,0.6-1.4,1.4-1.4s1.4,0.6,1.4,1.4l0,0H72.2z"/>
	<g>
		<rect x="71.2" y="125.9" class="st1" width="4.2" height="7.1"/>
	</g>
	<rect x="71.2" y="131.6" class="st1" width="4.2" height="1.4"/>
	<path class="st0" d="M75,132.7L75,132.7c0,0.8-0.6,1.4-1.4,1.4s-1.4-0.6-1.4-1.4l0,0H75z"/>
	<g>
		<rect x="71.2" y="131.6" class="st1" width="4.2" height="7.1"/>
	</g>
	<path class="st0" d="M72.2,144.2c0-0.8,0.6-1.4,1.4-1.4s1.4,0.6,1.4,1.4l0,0H72.2z"/>
	<g>
		<rect x="71.2" y="137.3" class="st1" width="4.2" height="7.1"/>
	</g>
	<rect x="71.2" y="142.9" class="st1" width="4.2" height="1.4"/>
	<path class="st0" d="M75,144.2L75,144.2c0,0.8-0.6,1.4-1.4,1.4s-1.4-0.6-1.4-1.4l0,0H75z"/>
	<g>
		<rect x="71.2" y="142.9" class="st1" width="4.2" height="7.1"/>
	</g>
	<path class="st0" d="M72.2,155.7c0-0.8,0.6-1.4,1.4-1.4s1.4,0.6,1.4,1.4l0,0H72.2z"/>
	<g>
		<rect x="71.2" y="150" class="st1" width="4.2" height="7.1"/>
	</g>
	<rect x="71.2" y="155.7" class="st1" width="4.2" height="1.4"/>
	<path class="st0" d="M75,155.7L75,155.7c0,0.8-0.6,1.4-1.4,1.4s-1.4-0.6-1.4-1.4l0,0H75z"/>
	<g>
		<rect x="71.2" y="155.7" class="st1" width="4.2" height="7.1"/>
	</g>
	<path class="st0" d="M72.2,167.1c0-0.8,0.6-1.4,1.4-1.4s1.4,0.6,1.4,1.4l0,0H72.2z"/>
	<g>
		<rect x="71.2" y="161.3" class="st1" width="4.2" height="7.1"/>
	</g>
	<rect x="71.2" y="167" class="st1" width="4.2" height="1.4"/>
	<path class="st0" d="M75,167.1L75,167.1c0,0.8-0.6,1.4-1.4,1.4s-1.4-0.6-1.4-1.4l0,0H75z"/>
	<g>
		<rect x="71.2" y="167" class="st1" width="4.2" height="7.1"/>
	</g>
	<path class="st0" d="M72.2,178.6c0-0.8,0.6-1.4,1.4-1.4s1.4,0.6,1.4,1.4l0,0H72.2z"/>
	<g>
		<rect x="71.2" y="172.6" class="st1" width="4.2" height="7.1"/>
	</g>
	<rect x="71.2" y="178.3" class="st1" width="4.2" height="1.4"/>
	<path class="st0" d="M75,178.6L75,178.6c0,0.8-0.6,1.4-1.4,1.4s-1.4-0.6-1.4-1.4l0,0H75z"/>
	<g>
		<rect x="71.2" y="178.3" class="st1" width="4.2" height="7.1"/>
	</g>
	<path class="st0" d="M72.2,190.1c0-0.8,0.6-1.4,1.4-1.4s1.4,0.6,1.4,1.4l0,0H72.2z"/>
	<g>
		<rect x="71.2" y="184" class="st1" width="4.2" height="7.1"/>
	</g>
	<rect x="71.2" y="189.6" class="st1" width="4.2" height="1.4"/>
	<path class="st0" d="M75,190.1L75,190.1c0,0.8-0.6,1.4-1.4,1.4s-1.4-0.6-1.4-1.4l0,0H75z"/>
	<g>
		<rect x="71.2" y="189.6" class="st1" width="4.2" height="7.1"/>
	</g>
	<path class="st0" d="M72.2,201.5c0-0.8,0.6-1.4,1.4-1.4s1.4,0.6,1.4,1.4l0,0H72.2z"/>
	<g>
		<rect x="71.2" y="195.3" class="st1" width="4.2" height="7.1"/>
	</g>
	<rect x="71.2" y="200.9" class="st1" width="4.2" height="1.4"/>
	<path class="st0" d="M75,201.5L75,201.5c0,0.8-0.6,1.4-1.4,1.4s-1.4-0.6-1.4-1.4l0,0H75z"/>
	<g>
		<rect x="71.2" y="200.9" class="st1" width="4.2" height="7.1"/>
	</g>
	<path class="st0" d="M72.2,213c0-0.8,0.6-1.4,1.4-1.4s1.4,0.6,1.4,1.4l0,0H72.2z"/>
	<g>
		<rect x="71.2" y="206.6" class="st1" width="4.2" height="7.1"/>
	</g>
	<rect x="71.2" y="212.3" class="st1" width="4.2" height="1.4"/>
	<path class="st0" d="M75,213L75,213c0,0.8-0.6,1.4-1.4,1.4s-1.4-0.6-1.4-1.4l0,0H75z"/>
	<g>
		<rect x="71.2" y="212.3" class="st1" width="4.2" height="7.1"/>
	</g>
	<path class="st0" d="M72.2,224.5c0-0.8,0.6-1.4,1.4-1.4s1.4,0.6,1.4,1.4l0,0H72.2z"/>
	<g>
		<rect x="71.2" y="217.9" class="st1" width="4.2" height="7.1"/>
	</g>
	<rect x="71.2" y="223.6" class="st1" width="4.2" height="1.4"/>
	<path class="st0" d="M75,224.5L75,224.5c0,0.8-0.6,1.4-1.4,1.4s-1.4-0.6-1.4-1.4l0,0H75z"/>
	<g>
		<rect x="71.2" y="223.6" class="st1" width="4.2" height="7.1"/>
	</g>
	<path class="st0" d="M72.2,235.9c0-0.8,0.6-1.4,1.4-1.4s1.4,0.6,1.4,1.4l0,0H72.2z"/>
	<g>
		<rect x="71.2" y="229.2" class="st1" width="4.2" height="7.1"/>
	</g>
	<rect x="71.2" y="234.9" class="st1" width="4.2" height="1.4"/>
	<path class="st0" d="M75,235.9L75,235.9c0,0.8-0.6,1.4-1.4,1.4s-1.4-0.6-1.4-1.4l0,0H75z"/>
	<g>
		<rect x="71.2" y="234.9" class="st1" width="4.2" height="7.1"/>
	</g>
	<path class="st0" d="M72.2,247.4c0-0.8,0.6-1.4,1.4-1.4s1.4,0.6,1.4,1.4l0,0H72.2z"/>
	<g>
		<rect x="71.2" y="240.6" class="st1" width="4.2" height="7.1"/>
	</g>
	<rect x="71.2" y="246.2" class="st1" width="4.2" height="1.4"/>
	<path class="st0" d="M75,247.4L75,247.4c0,0.8-0.6,1.4-1.4,1.4s-1.4-0.6-1.4-1.4l0,0H75z"/>
	<g>
		<rect x="71.2" y="246.2" class="st1" width="4.2" height="7.1"/>
	</g>
	<path class="st0" d="M72.2,258.9c0-0.8,0.6-1.4,1.4-1.4s1.4,0.6,1.4,1.4l0,0H72.2z"/>
	<g>
		<rect x="71.2" y="251.9" class="st1" width="4.2" height="7.1"/>
	</g>
	<rect x="71.2" y="257.5" class="st1" width="4.2" height="1.4"/>
	<path class="st0" d="M75,258.9L75,258.9c0,0.8-0.6,1.4-1.4,1.4s-1.4-0.6-1.4-1.4l0,0H75z"/>
	<g>
		<rect x="71.2" y="257.5" class="st1" width="4.2" height="7.1"/>
	</g>
	<path class="st0" d="M72.2,270.3c0-0.8,0.6-1.4,1.4-1.4s1.4,0.6,1.4,1.4l0,0H72.2z"/>
	<g>
		<rect x="71.2" y="264.6" class="st1" width="4.2" height="7.1"/>
	</g>
	<rect x="71.2" y="270.3" class="st1" width="4.2" height="1.4"/>
	<path class="st0" d="M75,270.3L75,270.3c0,0.8-0.6,1.4-1.4,1.4s-1.4-0.6-1.4-1.4l0,0H75z"/>
	<g>
		<rect x="71.2" y="270.3" class="st1" width="4.2" height="7.1"/>
	</g>
	<path class="st0" d="M72.2,281.8c0-0.8,0.6-1.4,1.4-1.4s1.4,0.6,1.4,1.4l0,0H72.2z"/>
	<g>
		<rect x="71.2" y="275.9" class="st1" width="4.2" height="7.1"/>
	</g>
	<rect x="71.2" y="281.6" class="st1" width="4.2" height="1.4"/>
	<path class="st0" d="M75,281.8L75,281.8c0,0.8-0.6,1.4-1.4,1.4s-1.4-0.6-1.4-1.4l0,0H75z"/>
	<g>
		<rect x="71.2" y="281.6" class="st1" width="4.2" height="7.1"/>
	</g>
	<path class="st0" d="M72.2,293.3L72.2,293.3c0-0.8,0.6-1.4,1.4-1.4s1.4,0.6,1.4,1.4l0,0H72.2z"/>
	<g>
		<rect x="71.2" y="287.3" class="st1" width="4.2" height="7.1"/>
	</g>
	<rect x="71.2" y="292.9" class="st1" width="4.2" height="1.4"/>
	<path class="st0" d="M75,293.3L75,293.3c0,0.8-0.6,1.4-1.4,1.4s-1.4-0.6-1.4-1.4l0,0H75z"/>
	<g>
		<rect x="71.2" y="292.9" class="st1" width="4.2" height="7.1"/>
	</g>
	<path class="st0" d="M84,6.6c0-0.8,0.6-1.4,1.4-1.4s1.4,0.6,1.4,1.4H84z"/>
	<g>
		<rect x="84" class="st1" width="4.2" height="7.1"/>
	</g>
	<rect x="84" y="5.7" class="st1" width="4.2" height="1.4"/>
	<path class="st0" d="M86.8,6.6c0,0.8-0.6,1.4-1.4,1.4C84.7,8,84,7.4,84,6.6l0,0H86.8z"/>
	<g>
		<rect x="84" y="5.7" class="st1" width="4.2" height="7.1"/>
	</g>
	<path class="st0" d="M84,18.1c0-0.8,0.6-1.4,1.4-1.4s1.4,0.6,1.4,1.4l0,0H84z"/>
	<g>
		<rect x="84" y="11.3" class="st1" width="4.2" height="7.1"/>
	</g>
	<rect x="84" y="17" class="st1" width="4.2" height="1.4"/>
	<path class="st0" d="M86.8,18.1L86.8,18.1c0,0.8-0.6,1.4-1.4,1.4S84,18.9,84,18.1l0,0H86.8z"/>
	<g>
		<rect x="84" y="17" class="st1" width="4.2" height="7.1"/>
	</g>
	<path class="st0" d="M84,29.5L84,29.5c0-0.8,0.6-1.4,1.4-1.4s1.4,0.6,1.4,1.4l0,0H84z"/>
	<g>
		<rect x="84" y="22.6" class="st1" width="4.2" height="7.1"/>
	</g>
	<rect x="84" y="28.3" class="st1" width="4.2" height="1.4"/>
	<path class="st0" d="M86.8,29.5L86.8,29.5c0,0.8-0.6,1.4-1.4,1.4S84,30.3,84,29.5l0,0H86.8z"/>
	<g>
		<rect x="84" y="28.3" class="st1" width="4.2" height="7.1"/>
	</g>
	<path class="st0" d="M84,41c0-0.8,0.6-1.4,1.4-1.4s1.4,0.6,1.4,1.4l0,0H84z"/>
	<g>
		<rect x="84" y="34" class="st1" width="4.2" height="7.1"/>
	</g>
	<rect x="84" y="39.6" class="st1" width="4.2" height="1.4"/>
	<path class="st0" d="M86.8,41L86.8,41c0,0.8-0.6,1.4-1.4,1.4S84,41.8,84,41l0,0H86.8z"/>
	<g>
		<rect x="84" y="39.6" class="st1" width="4.2" height="7.1"/>
	</g>
	<path class="st0" d="M84,52.5L84,52.5c0-0.8,0.6-1.4,1.4-1.4s1.4,0.6,1.4,1.4l0,0H84z"/>
	<g>
		<rect x="84" y="46.7" class="st1" width="4.2" height="7.1"/>
	</g>
	<rect x="84" y="52.4" class="st1" width="4.2" height="1.4"/>
	<path class="st0" d="M86.8,52.5L86.8,52.5c0,0.8-0.6,1.4-1.4,1.4S84,53.3,84,52.5l0,0H86.8z"/>
	<g>
		<rect x="84" y="52.4" class="st1" width="4.2" height="7.1"/>
	</g>
	<path class="st0" d="M84,63.9c0-0.8,0.6-1.4,1.4-1.4s1.4,0.6,1.4,1.4l0,0H84z"/>
	<g>
		<rect x="84" y="58" class="st1" width="4.2" height="7.1"/>
	</g>
	<rect x="84" y="63.7" class="st1" width="4.2" height="1.4"/>
	<path class="st0" d="M86.8,63.9L86.8,63.9c0,0.8-0.6,1.4-1.4,1.4S84,64.7,84,63.9l0,0H86.8z"/>
	<g>
		<rect x="84" y="63.7" class="st1" width="4.2" height="7.1"/>
	</g>
	<path class="st0" d="M84,75.4c0-0.8,0.6-1.4,1.4-1.4s1.4,0.6,1.4,1.4l0,0H84z"/>
	<g>
		<rect x="84" y="69.3" class="st1" width="4.2" height="7.1"/>
	</g>
	<rect x="84" y="75" class="st1" width="4.2" height="1.4"/>
	<path class="st0" d="M86.8,75.4L86.8,75.4c0,0.8-0.6,1.4-1.4,1.4S84,76.2,84,75.4l0,0H86.8z"/>
	<g>
		<rect x="84" y="75" class="st1" width="4.2" height="7.1"/>
	</g>
	<path class="st0" d="M84,86.9c0-0.8,0.6-1.4,1.4-1.4s1.4,0.6,1.4,1.4l0,0H84z"/>
	<g>
		<rect x="84" y="80.7" class="st1" width="4.2" height="7.1"/>
	</g>
	<rect x="84" y="86.3" class="st1" width="4.2" height="1.4"/>
	<path class="st0" d="M86.8,86.9L86.8,86.9c0,0.8-0.6,1.4-1.4,1.4S84,87.7,84,86.9l0,0H86.8z"/>
	<g>
		<rect x="84" y="86.3" class="st1" width="4.2" height="7.1"/>
	</g>
	<path class="st0" d="M84,98.3c0-0.8,0.6-1.4,1.4-1.4s1.4,0.6,1.4,1.4l0,0H84z"/>
	<g>
		<rect x="84" y="92" class="st1" width="4.2" height="7.1"/>
	</g>
	<rect x="84" y="97.6" class="st1" width="4.2" height="1.4"/>
	<path class="st0" d="M86.8,98.3L86.8,98.3c0,0.8-0.6,1.4-1.4,1.4S84,99.1,84,98.3l0,0H86.8z"/>
	<g>
		<rect x="84" y="97.6" class="st1" width="4.2" height="7.1"/>
	</g>
	<path class="st0" d="M84,109.8L84,109.8c0-0.8,0.6-1.4,1.4-1.4s1.4,0.6,1.4,1.4l0,0H84z"/>
	<g>
		<rect x="84" y="103.3" class="st1" width="4.2" height="7.1"/>
	</g>
	<rect x="84" y="109" class="st1" width="4.2" height="1.4"/>
	<path class="st0" d="M86.8,109.8L86.8,109.8c0,0.8-0.6,1.4-1.4,1.4s-1.4-0.6-1.4-1.4l0,0H86.8z"/>
	<g>
		<rect x="84" y="109" class="st1" width="4.2" height="7.1"/>
	</g>
	<path class="st0" d="M84,121.3c0-0.8,0.6-1.4,1.4-1.4s1.4,0.6,1.4,1.4l0,0H84z"/>
	<g>
		<rect x="84" y="114.6" class="st1" width="4.2" height="7.1"/>
	</g>
	<rect x="84" y="120.3" class="st1" width="4.2" height="1.4"/>
	<path class="st0" d="M86.8,121.3L86.8,121.3c0,0.8-0.6,1.4-1.4,1.4s-1.4-0.6-1.4-1.4l0,0H86.8z"/>
	<g>
		<rect x="84" y="120.3" class="st1" width="4.2" height="7.1"/>
	</g>
	<path class="st0" d="M84,132.7L84,132.7c0-0.8,0.6-1.4,1.4-1.4s1.4,0.6,1.4,1.4l0,0H84z"/>
	<g>
		<rect x="84" y="125.9" class="st1" width="4.2" height="7.1"/>
	</g>
	<rect x="84" y="131.6" class="st1" width="4.2" height="1.4"/>
	<path class="st0" d="M86.8,132.7L86.8,132.7c0,0.8-0.6,1.4-1.4,1.4s-1.4-0.6-1.4-1.4l0,0H86.8z"/>
	<g>
		<rect x="84" y="131.6" class="st1" width="4.2" height="7.1"/>
	</g>
	<path class="st0" d="M84,144.2c0-0.8,0.6-1.4,1.4-1.4s1.4,0.6,1.4,1.4l0,0H84z"/>
	<g>
		<rect x="84" y="137.3" class="st1" width="4.2" height="7.1"/>
	</g>
	<rect x="84" y="142.9" class="st1" width="4.2" height="1.4"/>
	<path class="st0" d="M86.8,144.2L86.8,144.2c0,0.8-0.6,1.4-1.4,1.4S84,145,84,144.2l0,0H86.8z"/>
	<g>
		<rect x="84" y="142.9" class="st1" width="4.2" height="7.1"/>
	</g>
	<path class="st0" d="M84,155.7c0-0.8,0.6-1.4,1.4-1.4s1.4,0.6,1.4,1.4l0,0H84z"/>
	<g>
		<rect x="84" y="150" class="st1" width="4.2" height="7.1"/>
	</g>
	<rect x="84" y="155.7" class="st1" width="4.2" height="1.4"/>
	<path class="st0" d="M86.8,155.7L86.8,155.7c0,0.8-0.6,1.4-1.4,1.4s-1.4-0.6-1.4-1.4l0,0H86.8z"/>
	<g>
		<rect x="84" y="155.7" class="st1" width="4.2" height="7.1"/>
	</g>
	<path class="st0" d="M84,167.1c0-0.8,0.6-1.4,1.4-1.4s1.4,0.6,1.4,1.4l0,0H84z"/>
	<g>
		<rect x="84" y="161.3" class="st1" width="4.2" height="7.1"/>
	</g>
	<rect x="84" y="167" class="st1" width="4.2" height="1.4"/>
	<path class="st0" d="M86.8,167.1L86.8,167.1c0,0.8-0.6,1.4-1.4,1.4s-1.4-0.6-1.4-1.4l0,0H86.8z"/>
	<g>
		<rect x="84" y="167" class="st1" width="4.2" height="7.1"/>
	</g>
	<path class="st0" d="M84,178.6c0-0.8,0.6-1.4,1.4-1.4s1.4,0.6,1.4,1.4l0,0H84z"/>
	<g>
		<rect x="84" y="172.6" class="st1" width="4.2" height="7.1"/>
	</g>
	<rect x="84" y="178.3" class="st1" width="4.2" height="1.4"/>
	<path class="st0" d="M86.8,178.6L86.8,178.6c0,0.8-0.6,1.4-1.4,1.4s-1.4-0.6-1.4-1.4l0,0H86.8z"/>
	<g>
		<rect x="84" y="178.3" class="st1" width="4.2" height="7.1"/>
	</g>
	<path class="st0" d="M84,190.1c0-0.8,0.6-1.4,1.4-1.4s1.4,0.6,1.4,1.4l0,0H84z"/>
	<g>
		<rect x="84" y="184" class="st1" width="4.2" height="7.1"/>
	</g>
	<rect x="84" y="189.6" class="st1" width="4.2" height="1.4"/>
	<path class="st0" d="M86.8,190.1L86.8,190.1c0,0.8-0.6,1.4-1.4,1.4s-1.4-0.6-1.4-1.4l0,0H86.8z"/>
	<g>
		<rect x="84" y="189.6" class="st1" width="4.2" height="7.1"/>
	</g>
	<path class="st0" d="M84,201.5c0-0.8,0.6-1.4,1.4-1.4s1.4,0.6,1.4,1.4l0,0H84z"/>
	<g>
		<rect x="84" y="195.3" class="st1" width="4.2" height="7.1"/>
	</g>
	<rect x="84" y="200.9" class="st1" width="4.2" height="1.4"/>
	<path class="st0" d="M86.8,201.5L86.8,201.5c0,0.8-0.6,1.4-1.4,1.4s-1.4-0.6-1.4-1.4l0,0H86.8z"/>
	<g>
		<rect x="84" y="200.9" class="st1" width="4.2" height="7.1"/>
	</g>
	<path class="st0" d="M84,213c0-0.8,0.6-1.4,1.4-1.4s1.4,0.6,1.4,1.4l0,0H84z"/>
	<g>
		<rect x="84" y="206.6" class="st1" width="4.2" height="7.1"/>
	</g>
	<rect x="84" y="212.3" class="st1" width="4.2" height="1.4"/>
	<path class="st0" d="M86.8,213L86.8,213c0,0.8-0.6,1.4-1.4,1.4S84,213.8,84,213l0,0H86.8z"/>
	<g>
		<rect x="84" y="212.3" class="st1" width="4.2" height="7.1"/>
	</g>
	<path class="st0" d="M84,224.5c0-0.8,0.6-1.4,1.4-1.4s1.4,0.6,1.4,1.4l0,0H84z"/>
	<g>
		<rect x="84" y="217.9" class="st1" width="4.2" height="7.1"/>
	</g>
	<rect x="84" y="223.6" class="st1" width="4.2" height="1.4"/>
	<path class="st0" d="M86.8,224.5L86.8,224.5c0,0.8-0.6,1.4-1.4,1.4s-1.4-0.6-1.4-1.4l0,0H86.8z"/>
	<g>
		<rect x="84" y="223.6" class="st1" width="4.2" height="7.1"/>
	</g>
	<path class="st0" d="M84,235.9c0-0.8,0.6-1.4,1.4-1.4s1.4,0.6,1.4,1.4l0,0H84z"/>
	<g>
		<rect x="84" y="229.2" class="st1" width="4.2" height="7.1"/>
	</g>
	<rect x="84" y="234.9" class="st1" width="4.2" height="1.4"/>
	<path class="st0" d="M86.8,235.9L86.8,235.9c0,0.8-0.6,1.4-1.4,1.4s-1.4-0.6-1.4-1.4l0,0H86.8z"/>
	<g>
		<rect x="84" y="234.9" class="st1" width="4.2" height="7.1"/>
	</g>
	<path class="st0" d="M84,247.4c0-0.8,0.6-1.4,1.4-1.4s1.4,0.6,1.4,1.4l0,0H84z"/>
	<g>
		<rect x="84" y="240.6" class="st1" width="4.2" height="7.1"/>
	</g>
	<rect x="84" y="246.2" class="st1" width="4.2" height="1.4"/>
	<path class="st0" d="M86.8,247.4L86.8,247.4c0,0.8-0.6,1.4-1.4,1.4s-1.4-0.6-1.4-1.4l0,0H86.8z"/>
	<g>
		<rect x="84" y="246.2" class="st1" width="4.2" height="7.1"/>
	</g>
	<path class="st0" d="M84,258.9c0-0.8,0.6-1.4,1.4-1.4s1.4,0.6,1.4,1.4l0,0H84z"/>
	<g>
		<rect x="84" y="251.9" class="st1" width="4.2" height="7.1"/>
	</g>
	<rect x="84" y="257.5" class="st1" width="4.2" height="1.4"/>
	<path class="st0" d="M86.8,258.9L86.8,258.9c0,0.8-0.6,1.4-1.4,1.4s-1.4-0.6-1.4-1.4l0,0H86.8z"/>
	<g>
		<rect x="84" y="257.5" class="st1" width="4.2" height="7.1"/>
	</g>
	<path class="st0" d="M84,270.3c0-0.8,0.6-1.4,1.4-1.4s1.4,0.6,1.4,1.4l0,0H84z"/>
	<g>
		<rect x="84" y="264.6" class="st1" width="4.2" height="7.1"/>
	</g>
	<rect x="84" y="270.3" class="st1" width="4.2" height="1.4"/>
	<path class="st0" d="M86.8,270.3L86.8,270.3c0,0.8-0.6,1.4-1.4,1.4s-1.4-0.6-1.4-1.4l0,0H86.8z"/>
	<g>
		<rect x="84" y="270.3" class="st1" width="4.2" height="7.1"/>
	</g>
	<path class="st0" d="M84,281.8c0-0.8,0.6-1.4,1.4-1.4s1.4,0.6,1.4,1.4l0,0H84z"/>
	<g>
		<rect x="84" y="275.9" class="st1" width="4.2" height="7.1"/>
	</g>
	<rect x="84" y="281.6" class="st1" width="4.2" height="1.4"/>
	<path class="st0" d="M86.8,281.8L86.8,281.8c0,0.8-0.6,1.4-1.4,1.4s-1.4-0.6-1.4-1.4l0,0H86.8z"/>
	<g>
		<rect x="84" y="281.6" class="st1" width="4.2" height="7.1"/>
	</g>
	<path class="st0" d="M84,293.3L84,293.3c0-0.8,0.6-1.4,1.4-1.4s1.4,0.6,1.4,1.4l0,0H84z"/>
	<g>
		<rect x="84" y="287.3" class="st1" width="4.2" height="7.1"/>
	</g>
	<rect x="84" y="292.9" class="st1" width="4.2" height="1.4"/>
	<path class="st0" d="M86.8,293.3L86.8,293.3c0,0.8-0.6,1.4-1.4,1.4s-1.4-0.6-1.4-1.4l0,0H86.8z"/>
	<g>
		<rect x="84" y="292.9" class="st1" width="4.2" height="7.1"/>
	</g>
	<path class="st0" d="M95.9,6.6c0-0.8,0.6-1.4,1.4-1.4s1.4,0.6,1.4,1.4H95.9z"/>
	<g>
		<rect x="95.3" class="st1" width="4.2" height="7.1"/>
	</g>
	<rect x="95.3" y="5.7" class="st1" width="4.2" height="1.4"/>
	<path class="st0" d="M98.7,6.6c0,0.8-0.6,1.4-1.4,1.4s-1.4-0.6-1.4-1.4l0,0H98.7z"/>
	<g>
		<rect x="95.3" y="5.7" class="st1" width="4.2" height="7.1"/>
	</g>
	<path class="st0" d="M95.9,18.1c0-0.8,0.6-1.4,1.4-1.4s1.4,0.6,1.4,1.4l0,0H95.9z"/>
	<g>
		<rect x="95.3" y="11.3" class="st1" width="4.2" height="7.1"/>
	</g>
	<rect x="95.3" y="17" class="st1" width="4.2" height="1.4"/>
	<path class="st0" d="M98.7,18.1L98.7,18.1c0,0.8-0.6,1.4-1.4,1.4s-1.4-0.6-1.4-1.4l0,0H98.7z"/>
	<g>
		<rect x="95.3" y="17" class="st1" width="4.2" height="7.1"/>
	</g>
	<path class="st0" d="M95.9,29.5L95.9,29.5c0-0.8,0.6-1.4,1.4-1.4s1.4,0.6,1.4,1.4l0,0H95.9z"/>
	<g>
		<rect x="95.3" y="22.6" class="st1" width="4.2" height="7.1"/>
	</g>
	<rect x="95.3" y="28.3" class="st1" width="4.2" height="1.4"/>
	<path class="st0" d="M98.7,29.5L98.7,29.5c0,0.8-0.6,1.4-1.4,1.4s-1.4-0.6-1.4-1.4l0,0H98.7z"/>
	<g>
		<rect x="95.3" y="28.3" class="st1" width="4.2" height="7.1"/>
	</g>
	<path class="st0" d="M95.9,41c0-0.8,0.6-1.4,1.4-1.4s1.4,0.6,1.4,1.4l0,0H95.9z"/>
	<g>
		<rect x="95.3" y="34" class="st1" width="4.2" height="7.1"/>
	</g>
	<rect x="95.3" y="39.6" class="st1" width="4.2" height="1.4"/>
	<path class="st0" d="M98.7,41L98.7,41c0,0.8-0.6,1.4-1.4,1.4s-1.4-0.6-1.4-1.4l0,0H98.7z"/>
	<g>
		<rect x="95.3" y="39.6" class="st1" width="4.2" height="7.1"/>
	</g>
	<path class="st0" d="M95.9,52.5L95.9,52.5c0-0.8,0.6-1.4,1.4-1.4s1.4,0.6,1.4,1.4l0,0H95.9z"/>
	<g>
		<rect x="95.3" y="46.7" class="st1" width="4.2" height="7.1"/>
	</g>
	<rect x="95.3" y="52.4" class="st1" width="4.2" height="1.4"/>
	<path class="st0" d="M98.7,52.5L98.7,52.5c0,0.8-0.6,1.4-1.4,1.4s-1.4-0.6-1.4-1.4l0,0H98.7z"/>
	<g>
		<rect x="95.3" y="52.4" class="st1" width="4.2" height="7.1"/>
	</g>
	<path class="st0" d="M95.9,63.9c0-0.8,0.6-1.4,1.4-1.4s1.4,0.6,1.4,1.4l0,0H95.9z"/>
	<g>
		<rect x="95.3" y="58" class="st1" width="4.2" height="7.1"/>
	</g>
	<rect x="95.3" y="63.7" class="st1" width="4.2" height="1.4"/>
	<path class="st0" d="M98.7,63.9L98.7,63.9c0,0.8-0.6,1.4-1.4,1.4s-1.4-0.6-1.4-1.4l0,0H98.7z"/>
	<g>
		<rect x="95.3" y="63.7" class="st1" width="4.2" height="7.1"/>
	</g>
	<path class="st0" d="M95.9,75.4c0-0.8,0.6-1.4,1.4-1.4s1.4,0.6,1.4,1.4l0,0H95.9z"/>
	<g>
		<rect x="95.3" y="69.3" class="st1" width="4.2" height="7.1"/>
	</g>
	<rect x="95.3" y="75" class="st1" width="4.2" height="1.4"/>
	<path class="st0" d="M98.7,75.4L98.7,75.4c0,0.8-0.6,1.4-1.4,1.4s-1.4-0.6-1.4-1.4l0,0H98.7z"/>
	<g>
		<rect x="95.3" y="75" class="st1" width="4.2" height="7.1"/>
	</g>
	<path class="st0" d="M95.9,86.9c0-0.8,0.6-1.4,1.4-1.4s1.4,0.6,1.4,1.4l0,0H95.9z"/>
	<g>
		<rect x="95.3" y="80.7" class="st1" width="4.2" height="7.1"/>
	</g>
	<rect x="95.3" y="86.3" class="st1" width="4.2" height="1.4"/>
	<path class="st0" d="M98.7,86.9L98.7,86.9c0,0.8-0.6,1.4-1.4,1.4s-1.4-0.6-1.4-1.4l0,0H98.7z"/>
	<g>
		<rect x="95.3" y="86.3" class="st1" width="4.2" height="7.1"/>
	</g>
	<path class="st0" d="M95.9,98.3c0-0.8,0.6-1.4,1.4-1.4s1.4,0.6,1.4,1.4l0,0H95.9z"/>
	<g>
		<rect x="95.3" y="92" class="st1" width="4.2" height="7.1"/>
	</g>
	<rect x="95.3" y="97.6" class="st1" width="4.2" height="1.4"/>
	<path class="st0" d="M98.7,98.3L98.7,98.3c0,0.8-0.6,1.4-1.4,1.4s-1.4-0.6-1.4-1.4l0,0H98.7z"/>
	<g>
		<rect x="95.3" y="97.6" class="st1" width="4.2" height="7.1"/>
	</g>
	<path class="st0" d="M95.9,109.8L95.9,109.8c0-0.8,0.6-1.4,1.4-1.4s1.4,0.6,1.4,1.4l0,0H95.9z"/>
	<g>
		<rect x="95.3" y="103.3" class="st1" width="4.2" height="7.1"/>
	</g>
	<rect x="95.3" y="109" class="st1" width="4.2" height="1.4"/>
	<path class="st0" d="M98.7,109.8L98.7,109.8c0,0.8-0.6,1.4-1.4,1.4s-1.4-0.6-1.4-1.4l0,0H98.7z"/>
	<g>
		<rect x="95.3" y="109" class="st1" width="4.2" height="7.1"/>
	</g>
	<path class="st0" d="M95.9,121.3c0-0.8,0.6-1.4,1.4-1.4s1.4,0.6,1.4,1.4l0,0H95.9z"/>
	<g>
		<rect x="95.3" y="114.6" class="st1" width="4.2" height="7.1"/>
	</g>
	<rect x="95.3" y="120.3" class="st1" width="4.2" height="1.4"/>
	<path class="st0" d="M98.7,121.3L98.7,121.3c0,0.8-0.6,1.4-1.4,1.4s-1.4-0.6-1.4-1.4l0,0H98.7z"/>
	<g>
		<rect x="95.3" y="120.3" class="st1" width="4.2" height="7.1"/>
	</g>
	<path class="st0" d="M95.9,132.7L95.9,132.7c0-0.8,0.6-1.4,1.4-1.4s1.4,0.6,1.4,1.4l0,0H95.9z"/>
	<g>
		<rect x="95.3" y="125.9" class="st1" width="4.2" height="7.1"/>
	</g>
	<rect x="95.3" y="131.6" class="st1" width="4.2" height="1.4"/>
	<path class="st0" d="M98.7,132.7L98.7,132.7c0,0.8-0.6,1.4-1.4,1.4s-1.4-0.6-1.4-1.4l0,0H98.7z"/>
	<g>
		<rect x="95.3" y="131.6" class="st1" width="4.2" height="7.1"/>
	</g>
	<path class="st0" d="M95.9,144.2c0-0.8,0.6-1.4,1.4-1.4s1.4,0.6,1.4,1.4l0,0H95.9z"/>
	<g>
		<rect x="95.3" y="137.3" class="st1" width="4.2" height="7.1"/>
	</g>
	<rect x="95.3" y="142.9" class="st1" width="4.2" height="1.4"/>
	<path class="st0" d="M98.7,144.2L98.7,144.2c0,0.8-0.6,1.4-1.4,1.4s-1.4-0.6-1.4-1.4l0,0H98.7z"/>
	<g>
		<rect x="95.3" y="142.9" class="st1" width="4.2" height="7.1"/>
	</g>
	<path class="st0" d="M95.9,155.7c0-0.8,0.6-1.4,1.4-1.4s1.4,0.6,1.4,1.4l0,0H95.9z"/>
	<g>
		<rect x="95.3" y="150" class="st1" width="4.2" height="7.1"/>
	</g>
	<rect x="95.3" y="155.7" class="st1" width="4.2" height="1.4"/>
	<path class="st0" d="M98.7,155.7L98.7,155.7c0,0.8-0.6,1.4-1.4,1.4s-1.4-0.6-1.4-1.4l0,0H98.7z"/>
	<g>
		<rect x="95.3" y="155.7" class="st1" width="4.2" height="7.1"/>
	</g>
	<path class="st0" d="M95.9,167.1c0-0.8,0.6-1.4,1.4-1.4s1.4,0.6,1.4,1.4l0,0H95.9z"/>
	<g>
		<rect x="95.3" y="161.3" class="st1" width="4.2" height="7.1"/>
	</g>
	<rect x="95.3" y="167" class="st1" width="4.2" height="1.4"/>
	<path class="st0" d="M98.7,167.1L98.7,167.1c0,0.8-0.6,1.4-1.4,1.4s-1.4-0.6-1.4-1.4l0,0H98.7z"/>
	<g>
		<rect x="95.3" y="167" class="st1" width="4.2" height="7.1"/>
	</g>
	<path class="st0" d="M95.9,178.6c0-0.8,0.6-1.4,1.4-1.4s1.4,0.6,1.4,1.4l0,0H95.9z"/>
	<g>
		<rect x="95.3" y="172.6" class="st1" width="4.2" height="7.1"/>
	</g>
	<rect x="95.3" y="178.3" class="st1" width="4.2" height="1.4"/>
	<path class="st0" d="M98.7,178.6L98.7,178.6c0,0.8-0.6,1.4-1.4,1.4s-1.4-0.6-1.4-1.4l0,0H98.7z"/>
	<g>
		<rect x="95.3" y="178.3" class="st1" width="4.2" height="7.1"/>
	</g>
	<path class="st0" d="M95.9,190.1c0-0.8,0.6-1.4,1.4-1.4s1.4,0.6,1.4,1.4l0,0H95.9z"/>
	<g>
		<rect x="95.3" y="184" class="st1" width="4.2" height="7.1"/>
	</g>
	<rect x="95.3" y="189.6" class="st1" width="4.2" height="1.4"/>
	<path class="st0" d="M98.7,190.1L98.7,190.1c0,0.8-0.6,1.4-1.4,1.4s-1.4-0.6-1.4-1.4l0,0H98.7z"/>
	<g>
		<rect x="95.3" y="189.6" class="st1" width="4.2" height="7.1"/>
	</g>
	<path class="st0" d="M95.9,201.5c0-0.8,0.6-1.4,1.4-1.4s1.4,0.6,1.4,1.4l0,0H95.9z"/>
	<g>
		<rect x="95.3" y="195.3" class="st1" width="4.2" height="7.1"/>
	</g>
	<rect x="95.3" y="200.9" class="st1" width="4.2" height="1.4"/>
	<path class="st0" d="M98.7,201.5L98.7,201.5c0,0.8-0.6,1.4-1.4,1.4s-1.4-0.6-1.4-1.4l0,0H98.7z"/>
	<g>
		<rect x="95.3" y="200.9" class="st1" width="4.2" height="7.1"/>
	</g>
	<path class="st0" d="M95.9,213c0-0.8,0.6-1.4,1.4-1.4s1.4,0.6,1.4,1.4l0,0H95.9z"/>
	<g>
		<rect x="95.3" y="206.6" class="st1" width="4.2" height="7.1"/>
	</g>
	<rect x="95.3" y="212.3" class="st1" width="4.2" height="1.4"/>
	<path class="st0" d="M98.7,213L98.7,213c0,0.8-0.6,1.4-1.4,1.4s-1.4-0.6-1.4-1.4l0,0H98.7z"/>
	<g>
		<rect x="95.3" y="212.3" class="st1" width="4.2" height="7.1"/>
	</g>
	<path class="st0" d="M95.9,224.5c0-0.8,0.6-1.4,1.4-1.4s1.4,0.6,1.4,1.4l0,0H95.9z"/>
	<g>
		<rect x="95.3" y="217.9" class="st1" width="4.2" height="7.1"/>
	</g>
	<rect x="95.3" y="223.6" class="st1" width="4.2" height="1.4"/>
	<path class="st0" d="M98.7,224.5L98.7,224.5c0,0.8-0.6,1.4-1.4,1.4s-1.4-0.6-1.4-1.4l0,0H98.7z"/>
	<g>
		<rect x="95.3" y="223.6" class="st1" width="4.2" height="7.1"/>
	</g>
	<path class="st0" d="M95.9,235.9c0-0.8,0.6-1.4,1.4-1.4s1.4,0.6,1.4,1.4l0,0H95.9z"/>
	<g>
		<rect x="95.3" y="229.2" class="st1" width="4.2" height="7.1"/>
	</g>
	<rect x="95.3" y="234.9" class="st1" width="4.2" height="1.4"/>
	<path class="st0" d="M98.7,235.9L98.7,235.9c0,0.8-0.6,1.4-1.4,1.4s-1.4-0.6-1.4-1.4l0,0H98.7z"/>
	<g>
		<rect x="95.3" y="234.9" class="st1" width="4.2" height="7.1"/>
	</g>
	<path class="st0" d="M95.9,247.4c0-0.8,0.6-1.4,1.4-1.4s1.4,0.6,1.4,1.4l0,0H95.9z"/>
	<g>
		<rect x="95.3" y="240.6" class="st1" width="4.2" height="7.1"/>
	</g>
	<rect x="95.3" y="246.2" class="st1" width="4.2" height="1.4"/>
	<path class="st0" d="M98.7,247.4L98.7,247.4c0,0.8-0.6,1.4-1.4,1.4s-1.4-0.6-1.4-1.4l0,0H98.7z"/>
	<g>
		<rect x="95.3" y="246.2" class="st1" width="4.2" height="7.1"/>
	</g>
	<path class="st0" d="M95.9,258.9c0-0.8,0.6-1.4,1.4-1.4s1.4,0.6,1.4,1.4l0,0H95.9z"/>
	<g>
		<rect x="95.3" y="251.9" class="st1" width="4.2" height="7.1"/>
	</g>
	<rect x="95.3" y="257.5" class="st1" width="4.2" height="1.4"/>
	<path class="st0" d="M98.7,258.9L98.7,258.9c0,0.8-0.6,1.4-1.4,1.4s-1.4-0.6-1.4-1.4l0,0H98.7z"/>
	<g>
		<rect x="95.3" y="257.5" class="st1" width="4.2" height="7.1"/>
	</g>
	<path class="st0" d="M95.9,270.3c0-0.8,0.6-1.4,1.4-1.4s1.4,0.6,1.4,1.4l0,0H95.9z"/>
	<g>
		<rect x="95.3" y="264.6" class="st1" width="4.2" height="7.1"/>
	</g>
	<rect x="95.3" y="270.3" class="st1" width="4.2" height="1.4"/>
	<path class="st0" d="M98.7,270.3L98.7,270.3c0,0.8-0.6,1.4-1.4,1.4s-1.4-0.6-1.4-1.4l0,0H98.7z"/>
	<g>
		<rect x="95.3" y="270.3" class="st1" width="4.2" height="7.1"/>
	</g>
	<path class="st0" d="M95.9,281.8c0-0.8,0.6-1.4,1.4-1.4s1.4,0.6,1.4,1.4l0,0H95.9z"/>
	<g>
		<rect x="95.3" y="275.9" class="st1" width="4.2" height="7.1"/>
	</g>
	<rect x="95.3" y="281.6" class="st1" width="4.2" height="1.4"/>
	<path class="st0" d="M98.7,281.8L98.7,281.8c0,0.8-0.6,1.4-1.4,1.4s-1.4-0.6-1.4-1.4l0,0H98.7z"/>
	<g>
		<rect x="95.3" y="281.6" class="st1" width="4.2" height="7.1"/>
	</g>
	<path class="st0" d="M95.9,293.3L95.9,293.3c0-0.8,0.6-1.4,1.4-1.4s1.4,0.6,1.4,1.4l0,0H95.9z"/>
	<g>
		<rect x="95.3" y="287.3" class="st1" width="4.2" height="7.1"/>
	</g>
	<rect x="95.3" y="292.9" class="st1" width="4.2" height="1.4"/>
	<path class="st0" d="M98.7,293.3L98.7,293.3c0,0.8-0.6,1.4-1.4,1.4s-1.4-0.6-1.4-1.4l0,0H98.7z"/>
	<g>
		<rect x="95.3" y="292.9" class="st1" width="4.2" height="7.1"/>
	</g>
</g>
</svg>
